<?xml version="1.0" encoding="UTF-8"?>
<svg width="3300px" height="2200px" viewBox="0 0 3300 2200" version="1.1" xmlns="http://www.w3.org/2000/svg" xmlns:xlink="http://www.w3.org/1999/xlink">
    <title>bubble.left.mentions</title>
    <g id="Page-1" stroke="none" stroke-width="1" fill="none" fill-rule="evenodd">
        <g id="bubble.left.mentions">
            <g id="Notes">
                <rect id="artboard" fill="#FFFFFF" fill-rule="nonzero" x="0" y="0" width="3300" height="2200"></rect>
                <line x1="263" y1="292" x2="3036" y2="292" id="Path" stroke="#000000" stroke-width="0.5"></line>
                <text id="Weight/Scale-Variations" fill="#000000" fill-rule="nonzero" font-family="Helvetica-Bold, Helvetica" font-size="13" font-weight="bold">
                    <tspan x="263" y="322">Weight/Scale Variations</tspan>
                </text>
                <text id="Ultralight" fill="#000000" fill-rule="nonzero" font-family="Helvetica" font-size="13" font-weight="normal">
                    <tspan x="533.711" y="322">Ultralight</tspan>
                </text>
                <text id="Thin" fill="#000000" fill-rule="nonzero" font-family="Helvetica" font-size="13" font-weight="normal">
                    <tspan x="843.422" y="322">Thin</tspan>
                </text>
                <text id="Light" fill="#000000" fill-rule="nonzero" font-family="Helvetica" font-size="13" font-weight="normal">
                    <tspan x="1138.63" y="322">Light</tspan>
                </text>
                <text id="Regular" fill="#000000" fill-rule="nonzero" font-family="Helvetica" font-size="13" font-weight="normal">
                    <tspan x="1426.84" y="322">Regular</tspan>
                </text>
                <text id="Medium" fill="#000000" fill-rule="nonzero" font-family="Helvetica" font-size="13" font-weight="normal">
                    <tspan x="1723.06" y="322">Medium</tspan>
                </text>
                <text id="Semibold" fill="#000000" fill-rule="nonzero" font-family="Helvetica" font-size="13" font-weight="normal">
                    <tspan x="2015.77" y="322">Semibold</tspan>
                </text>
                <text id="Bold" fill="#000000" fill-rule="nonzero" font-family="Helvetica" font-size="13" font-weight="normal">
                    <tspan x="2326.48" y="322">Bold</tspan>
                </text>
                <text id="Heavy" fill="#000000" fill-rule="nonzero" font-family="Helvetica" font-size="13" font-weight="normal">
                    <tspan x="2618.19" y="322">Heavy</tspan>
                </text>
                <text id="Black" fill="#000000" fill-rule="nonzero" font-family="Helvetica" font-size="13" font-weight="normal">
                    <tspan x="2917.4" y="322">Black</tspan>
                </text>
                <line x1="263" y1="1903" x2="3036" y2="1903" id="Path" stroke="#000000" stroke-width="0.5"></line>
                <g id="Group" transform="translate(264.000000, 1918.000000)" fill="#000000" fill-rule="nonzero">
                    <path d="M8.24805,15.830078 C12.5547,15.830078 16.1387,12.25586 16.1387,7.94922 C16.1387,3.6426 12.5449,0.0684 8.23828,0.0684 C3.94141,0.0684 0.36719,3.6426 0.36719,7.94922 C0.36719,12.25586 3.95117,15.830078 8.24805,15.830078 Z M8.24805,14.345703 C4.70312,14.345703 1.87109,11.50391 1.87109,7.94922 C1.87109,4.3945 4.69336,1.5527 8.23828,1.5527 C11.793,1.5527 14.6348,4.3945 14.6445252,7.94922 C14.6543,11.50391 11.8027,14.345703 8.24805,14.345703 Z M8.22852,11.37695 C8.69727,11.37695 8.9707,11.06445 8.9707,10.54688 L8.9707,8.68164 L11.002,8.68164 C11.5,8.68164 11.832,8.42773 11.832,7.95898 C11.832,7.48047 11.5195,7.2168 11.002,7.2168 L8.9707,7.2168 L8.9707,5.18555 C8.9707,4.668 8.69727,4.3457 8.22852,4.3457 C7.75977,4.3457 7.50586,4.6875 7.50586,5.18555 L7.50586,7.2168 L5.49414,7.2168 C4.97656,7.2168 4.64453,7.48047 4.64453,7.95898 C4.64453,8.42773 4.99609,8.68164 5.49414,8.68164 L7.50586,8.68164 L7.50586,10.54688 C7.50586,11.04492 7.75977,11.37695 8.22852,11.37695 Z" id="Shape"></path>
                </g>
                <g id="Group" transform="translate(282.506000, 1915.000000)" fill="#000000" fill-rule="nonzero">
                    <path d="M10.709,20.91016 C16.1582,20.91016 20.6699,16.38867 20.6699,10.94922 C20.6699,5.5 16.1484,0.9883 10.6992,0.9883 C5.25977,0.9883 0.74805,5.5 0.74805,10.94922 C0.74805,16.38867 5.26953,20.91016 10.709,20.91016 Z M10.709,19.25 C6.09961,19.25 2.41797,15.55859 2.41797,10.94922 C2.41797,6.3398 6.08984,2.6484 10.6992,2.6484 C15.3086,2.6484 19,6.3398 19.009819,10.94922 C19.0195,15.55859 15.3184,19.25 10.709,19.25 Z M10.6797,15.33398 C11.207,15.33398 11.5098,14.98242 11.5098,14.40625 L11.5098,11.76953 L14.3223,11.76953 C14.8691,11.76953 15.25,11.48633 15.25,10.96875 C15.25,10.44141 14.8887,10.13867 14.3223,10.13867 L11.5098,10.13867 L11.5098,7.3164 C11.5098,6.75 11.207,6.3887 10.6797,6.3887 C10.1621,6.3887 9.8789,6.7695 9.8789,7.3164 L9.8789,10.13867 L7.07617,10.13867 C6.50977,10.13867 6.13867,10.44141 6.13867,10.96875 C6.13867,11.48633 6.5293,11.76953 7.07617,11.76953 L9.8789,11.76953 L9.8789,14.40625 C9.8789,14.96289 10.1621,15.33398 10.6797,15.33398 Z" id="Shape"></path>
                </g>
                <g id="Group" transform="translate(306.924000, 1913.000000)" fill="#000000" fill-rule="nonzero">
                    <path d="M12.9707,25.66406 C19.9336,25.66406 25.6953,19.9023438 25.6953,12.94922 C25.6953,5.9863 19.9238,0.2246 12.9609,0.2246 C6.00781,0.2246 0.25586,5.9863 0.25586,12.94922 C0.25586,19.9023438 6.01758,25.66406 12.9707,25.66406 Z M12.9707,23.84766 C6.93555,23.84766 2.08203,18.98438 2.08203,12.94922 C2.08203,6.9043 6.92578,2.0508 12.9609,2.0508 C19.0059,2.0508 23.8594,6.9043 23.8691148,12.94922 C23.8789,18.98438 19.0156,23.84766 12.9707,23.84766 Z M12.9414,18.61328 C13.5176,18.61328 13.8594,18.22266 13.8594,17.61719 L13.8594,13.86719 L17.7754,13.86719 C18.3711,13.86719 18.7812,13.53516 18.7812,12.97852 C18.7812,12.40234 18.3906,12.06055 17.7754,12.06055 L13.8594,12.06055 L13.8594,8.1348 C13.8594,7.5195 13.5176,7.1289 12.9414,7.1289 C12.375,7.1289 12.0527,7.5391 12.0527,8.1348 L12.0527,12.06055 L8.1465,12.06055 C7.53125,12.06055 7.13086,12.40234 7.13086,12.97852 C7.13086,13.53516 7.55078,13.86719 8.1465,13.86719 L12.0527,13.86719 L12.0527,17.61719 C12.0527,18.20312 12.375,18.61328 12.9414,18.61328 Z" id="Shape"></path>
                </g>
                <text id="Design-Variations" fill="#000000" fill-rule="nonzero" font-family="Helvetica-Bold, Helvetica" font-size="13" font-weight="bold">
                    <tspan x="263" y="1953">Design Variations</tspan>
                </text>
                <text id="Symbols-are-supported-in-up-to-nine-weights-and-three-scales." fill="#000000" fill-rule="nonzero" font-family="Helvetica" font-size="13" font-weight="normal">
                    <tspan x="263" y="1971">Symbols are supported in up to nine weights and three scales.</tspan>
                </text>
                <text id="For-optimal-layout-with-text-and-other-symbols,-vertically-align" fill="#000000" fill-rule="nonzero" font-family="Helvetica" font-size="13" font-weight="normal">
                    <tspan x="263" y="1989">For optimal layout with text and other symbols, vertically align</tspan>
                </text>
                <text id="symbols-with-the-adjacent-text." fill="#000000" fill-rule="nonzero" font-family="Helvetica" font-size="13" font-weight="normal">
                    <tspan x="263" y="2007">symbols with the adjacent text.</tspan>
                </text>
                <line x1="776" y1="1919" x2="776" y2="1933" id="Path" stroke="#00AEEF" stroke-width="0.5"></line>
                <g id="Group" transform="translate(778.000000, 1918.000000)" fill="#000000" fill-rule="nonzero">
                    <path d="M1.31055,15.126953 C1.82812,15.126953 2.08203,14.9316406 2.26758,14.394531 L3.52734,10.9375 L9.2891,10.9375 L10.5488,14.394531 C10.7344,14.9316406 10.9883,15.126953 11.4961,15.126953 C12.0137,15.126953 12.3457,14.814453 12.3457,14.326172 C12.3457,14.160156 12.3164,14.013672 12.2383,13.79883 L7.6582,1.6113 C7.43359,1.0059 7.0332,0.7129 6.4082,0.7129 C5.80273,0.7129 5.39258,1.0059 5.17773,1.6016 L0.59766,13.80859 C0.51953,14.023438 0.49023,14.169922 0.49023,14.335938 C0.49023,14.824219 0.80273,15.126953 1.31055,15.126953 Z M4.00586,9.46289 L6.37891,2.8906 L6.42773,2.8906 L8.8008,9.46289 L4.00586,9.46289 Z" id="Shape"></path>
                </g>
                <line x1="792.836" y1="1919" x2="792.836" y2="1933" id="Path" stroke="#00AEEF" stroke-width="0.5"></line>
                <text id="Margins" fill="#000000" fill-rule="nonzero" font-family="Helvetica-Bold, Helvetica" font-size="13" font-weight="bold">
                    <tspan x="776" y="1953">Margins</tspan>
                </text>
                <text id="Leading-and-trailing-margins-on-the-left-and-right-side-of-each-symbol" fill="#000000" fill-rule="nonzero" font-family="Helvetica" font-size="13" font-weight="normal">
                    <tspan x="776" y="1971">Leading and trailing margins on the left and right side of each symbol</tspan>
                </text>
                <text id="can-be-adjusted-by-modifying-the-x-location-of-the-margin-guidelines." fill="#000000" fill-rule="nonzero" font-family="Helvetica" font-size="13" font-weight="normal">
                    <tspan x="776" y="1989">can be adjusted by modifying the x-location of the margin guidelines.</tspan>
                </text>
                <text id="Modifications-are-automatically-applied-proportionally-to-all" fill="#000000" fill-rule="nonzero" font-family="Helvetica" font-size="13" font-weight="normal">
                    <tspan x="776" y="2007">Modifications are automatically applied proportionally to all</tspan>
                </text>
                <text id="scales-and-weights." fill="#000000" fill-rule="nonzero" font-family="Helvetica" font-size="13" font-weight="normal">
                    <tspan x="776" y="2025">scales and weights.</tspan>
                </text>
                <g id="Group" transform="translate(1291.000000, 1914.000000)" fill="#000000" fill-rule="nonzero">
                    <path d="M0.8418,20.86523 L2.54102,22.57422 C3.40039,23.44336 4.38672,23.38477 5.31445,22.35938 L15.4902,11.14844 C15.7539,11.23633 16.0273,11.2168 16.3398,11.1582 L17.4043,10.96289 L18.0684,11.63672 L18.0293,12.19336 C17.9902,12.69141 18.1172,13.07227 18.6055,13.55078 L19.3672,14.29297 C19.8457,14.77148 20.4609,14.80078 20.9297,14.33203 L23.8398,11.41211 C24.3086,10.94336 24.2891,10.34766 23.8105,9.86914 L23.0391,9.10742 C22.5605,8.6289 22.1895,8.4727 21.7109,8.5117 L21.1348,8.5605 L20.4902,7.9258 L20.7344,6.8027 C20.8613,6.2363 20.7051,5.7969 20.1191,5.2109 L17.9219,3.0234 C14.582,-0.2969 10.1484,-0.2188 7.25781,2.6719 C6.83789,3.082 6.80859,3.6582 7.04297,4.0488 C7.27734,4.4102 7.73633,4.6445 8.3809,4.4785 C9.8457,4.1367 11.3691,4.0781 12.7949,5.0156 L12.209,6.4707 C12.0137,6.9492 11.9844,7.3496 12.1113,7.7109 L1.04688,18.101562 C0.06055,19.0195312 -0.01758,19.996094 0.8418,20.86523 Z M8.752,3.043 C11.1836,1.2656 14.4746,1.5684 16.7012,3.7949 L19.1328,6.207 C19.3672,6.4414 19.4062,6.627 19.3379,6.9688 L19.0156,8.4531 L20.5195,9.9375 L21.5059,9.87891 C21.7598,9.86914 21.8379,9.88867 22.0332,10.08398 L22.6094,10.66016 L20.168,13.10156 L19.5918,12.52539 C19.3965,12.33008 19.3672,12.25195 19.377,11.98828 L19.4453,11.01172 L17.9512,9.52734 L16.4277,9.78125 C16.1055,9.84961 15.959,9.82031 15.7148,9.58594 L13.7129,7.584 C13.459,7.3496 13.4297,7.1836 13.5859,6.8125 L14.4648,4.7227 C12.9023,3.2676 10.8711,2.6426 8.8398,3.2383 C8.6836,3.2773 8.625,3.1504 8.752,3.043 Z M3.27344,21.3047 L2.10156,20.14258 C1.63281,19.683594 1.74023,19.341797 2.14062,18.9804688 L12.9512,8.8047 L14.416,10.28906 L4.42578,21.27539 C4.07422,21.67578 3.74219,21.77344 3.27344,21.3047 Z" id="Shape"></path>
                </g>
                <text id="Exporting" fill="#000000" fill-rule="nonzero" font-family="Helvetica-Bold, Helvetica" font-size="13" font-weight="bold">
                    <tspan x="1289" y="1953">Exporting</tspan>
                </text>
                <text id="Symbols-should-be-outlined-when-exporting-to-ensure-the" fill="#000000" fill-rule="nonzero" font-family="Helvetica" font-size="13" font-weight="normal">
                    <tspan x="1289" y="1971">Symbols should be outlined when exporting to ensure the</tspan>
                </text>
                <text id="design-is-preserved-when-submitting-to-Xcode." fill="#000000" fill-rule="nonzero" font-family="Helvetica" font-size="13" font-weight="normal">
                    <tspan x="1289" y="1989">design is preserved when submitting to Xcode.</tspan>
                </text>
                <text id="template-version" fill="#000000" fill-rule="nonzero" font-family="Helvetica" font-size="13" font-weight="normal">
                    <tspan x="2952" y="1933">Template v.2.0</tspan>
                </text>
                <text id="Requires-Xcode-12-or-greater" fill="#000000" fill-rule="nonzero" font-family="Helvetica" font-size="13" font-weight="normal">
                    <tspan x="2865" y="1951">Requires Xcode 12 or greater</tspan>
                </text>
                <text id="Generated-from-bubble.left" fill="#000000" fill-rule="nonzero" font-family="Helvetica" font-size="13" font-weight="normal">
                    <tspan x="2881" y="1969">Generated from bubble.left</tspan>
                </text>
                <text id="Typeset-at-100-points" fill="#000000" fill-rule="nonzero" font-family="Helvetica" font-size="13" font-weight="normal">
                    <tspan x="2912" y="1987">Typeset at 100 points</tspan>
                </text>
                <text id="Small" fill="#000000" fill-rule="nonzero" font-family="Helvetica" font-size="13" font-weight="normal">
                    <tspan x="263" y="726">Small</tspan>
                </text>
                <text id="Medium" fill="#000000" fill-rule="nonzero" font-family="Helvetica" font-size="13" font-weight="normal">
                    <tspan x="263" y="1156">Medium</tspan>
                </text>
                <text id="Large" fill="#000000" fill-rule="nonzero" font-family="Helvetica" font-size="13" font-weight="normal">
                    <tspan x="263" y="1586">Large</tspan>
                </text>
            </g>
            <g id="Guides" transform="translate(263.000000, 625.000000)">
                <g id="H-reference" transform="translate(76.000000, 0.000000)" fill="#27AAE1" fill-rule="nonzero">
                    <path d="M0.976562,71 L3.66211,71 L12.9883,46.5371 L45.7031,46.5371 L55.0781,71 L57.7148,71 L30.6152,0.541 L28.125,0.541 L0.976562,71 Z M29.2969,3.8613 L29.3945,3.8613 L44.873,44.291 L13.8672,44.291 L29.2969,3.8613 Z" id="Shape"></path>
                </g>
                <line x1="0" y1="71" x2="2773" y2="71" id="Baseline-S" stroke="#27AAE1" stroke-width="0.5"></line>
                <line x1="0" y1="0.541" x2="2773" y2="0.541" id="Capline-S" stroke="#27AAE1" stroke-width="0.5"></line>
                <g id="H-reference" transform="translate(76.000000, 430.000000)" fill="#27AAE1" fill-rule="nonzero">
                    <path d="M0.976562,71 L3.66211,71 L12.9883,46.5371 L45.7031,46.5371 L55.0781,71 L57.7148,71 L30.6152,0.541 L28.125,0.541 L0.976562,71 Z M29.2969,3.8613 L29.3945,3.8613 L44.873,44.291 L13.8672,44.291 L29.2969,3.8613 Z" id="Shape"></path>
                </g>
                <line x1="0" y1="501" x2="2773" y2="501" id="Baseline-M" stroke="#27AAE1" stroke-width="0.5"></line>
                <line x1="0" y1="430.54" x2="2773" y2="430.54" id="Capline-M" stroke="#27AAE1" stroke-width="0.5"></line>
                <g id="H-reference" transform="translate(76.000000, 860.000000)" fill="#27AAE1" fill-rule="nonzero">
                    <path d="M0.976562,71 L3.66211,71 L12.9883,46.5371 L45.7031,46.5371 L55.0781,71 L57.7148,71 L30.6152,0.541 L28.125,0.541 L0.976562,71 Z M29.2969,3.8613 L29.3945,3.8613 L44.873,44.291 L13.8672,44.291 L29.2969,3.8613 Z" id="Shape"></path>
                </g>
                <line x1="0" y1="931" x2="2773" y2="931" id="Baseline-L" stroke="#27AAE1" stroke-width="0.5"></line>
                <line x1="0" y1="860.54" x2="2773" y2="860.54" id="Capline-L" stroke="#27AAE1" stroke-width="0.5"></line>
                <line x1="1120.58" y1="405.79" x2="1120.58" y2="525.12" id="left-margin" stroke="#00AEEF" stroke-width="0.5"></line>
                <line x1="1253.1" y1="405.79" x2="1253.1" y2="525.12" id="right-margin" stroke="#00AEEF" stroke-width="0.5"></line>
            </g>
            <g id="Symbols" transform="translate(493.000000, 618.000000)" fill="#000000" fill-rule="nonzero">
                <g id="Black-L" transform="translate(2369.240000, 835.000000)">
                    <path d="M43.7168,141.5742 C48.8438,141.5742 53.0918,139.5234 59.3418,134.1035 L80.2891,115.8418 L109.83,115.8418 C129.703,115.8418 142.252,103.195312 142.252,83.4199 L142.252,32.8828 C142.252,13.1074 129.703,0.461 109.83,0.461 L32.4863,0.461 C12.6133,0.461 0.0645,13.1074 0.0645,32.8828 L0.0645,83.4199 C0.0645,103.195312 13.7852,115.8418 30.7285,115.8418 L31.7051,115.8418 L31.7051,128.3906 C31.7051,136.5938 36.2949,141.5742 43.7168,141.5742 Z M48.5508,119.2598 L48.5508,102.267578 C48.5508,97.43359 46.0117,95.62695 41.8613,95.62695 L34,95.62695 C24.8203,95.62695 20.3281,91.1348 20.3281,81.9062 L20.3281,34.3965 C20.3281,25.168 24.8203,20.7246 34,20.7246 L108.316,20.7246 C117.496,20.7246 122.037,25.168 122.037,34.3965 L122.037,81.9062 C122.037,91.1348 117.496,95.62695 108.316,95.62695 L78.5801,95.62695 C73.5996,95.62695 71.5488,96.65234 67.8867,100.2168 L48.5508,119.2598 Z" id="Shape"></path>
                </g>
                <g id="Heavy-L" transform="translate(2073.070000, 837.000000)">
                    <path d="M42.1543,138.2559 C46.6953,138.2559 50.4062,136.3516 55.9238,131.5176 L77.1152,113.0117 L109.879,113.0117 C129.264,113.0117 141.178,100.951172 141.178,81.7617 L141.178,31.3711 C141.178,12.1816 129.264,0.121 109.879,0.121 L31.3145,0.121 C11.9785,0.121 0.0645,12.1328 0.0645,31.3711 L0.0645,81.7617 C0.0645,101 12.8574,113.0117 29.9961,113.0117 L31.5586,113.0117 L31.5586,126.5371 C31.5586,133.8125 35.6113,138.2559 42.1543,138.2559 Z M46.3535,118.8711 L46.3535,101.585938 C46.3535,97.19141 44.2051,95.53125 40.2988,95.53125 L32.4863,95.53125 C22.5254,95.53125 17.5938,90.502 17.5938,80.5898 L17.5938,32.5918 C17.5938,22.6309 22.5254,17.6504 32.4863,17.6504 L108.707,17.6504 C118.668,17.6504 123.648,22.6309 123.648,32.5918 L123.648,80.5898 C123.648,90.502 118.668,95.53125 108.707,95.53125 L75.7969,95.53125 C71.2559,95.53125 69.3027,96.41016 65.9824,99.68164 L46.3535,118.8711 Z" id="Shape"></path>
                </g>
                <g id="Bold-L" transform="translate(1776.970000, 838.000000)">
                    <path d="M40.4453,135.791 C44.3516,135.791 47.3789,134.0332 52.1152,129.9316 L73.5996,111.084 L109.977,111.084 C128.727,111.084 139.957,99.707031 139.957,81.1035 L139.957,30.957 C139.957,12.3535 128.727,0.9766 109.977,0.9766 L30.0449,0.9766 C11.2461,0.9766 0.0645,12.3047 0.0645,30.957 L0.0645,81.1035 C0.0645,99.755859 11.832,111.084 29.166,111.084 L31.4609,111.084 L31.4609,125.7324 C31.4609,131.9336 34.8301,135.791 40.4453,135.791 Z M43.9609,119.6777 L43.9609,102.00195 C43.9609,98.0957 42.1055,96.63086 38.5898,96.63086 L30.8262,96.63086 C19.9375,96.63086 14.5176,91.06445 14.5176,80.3223 L14.5176,31.7383 C14.5176,21.0449 19.9375,15.4297 30.8262,15.4297 L109.195,15.4297 C119.986,15.4297 125.504,21.0449 125.504,31.7383 L125.504,80.3223 C125.504,91.06445 119.986,96.63086 109.195,96.63086 L72.6719,96.63086 C68.6191,96.63086 66.8125,97.41211 63.8828,100.292969 L43.9609,119.6777 Z" id="Shape"></path>
                </g>
                <g id="Semibold-L" transform="translate(1480.700000, 840.000000)">
                    <path d="M39.2734,132.7656 C42.6914,132.7656 45.3281,131.1055 49.4785,127.4922 L71.1582,108.4492 L110.025,108.4492 C128.385,108.4492 139.078,97.560547 139.078,79.3965 L139.078,29.3477 C139.078,11.1836 128.385,0.2461 110.025,0.2461 L29.166,0.2461 C10.7578,0.2461 0.0645,11.1348 0.0645,29.3477 L0.0645,79.3965 C0.0645,97.609375 11.1484,108.4492 28.5801,108.4492 L31.3633,108.4492 L31.3633,123.8789 C31.3633,129.3477 34.3418,132.7656 39.2734,132.7656 Z M42.252,118.9473 L42.252,101.02734 C42.252,97.462891 40.6895,96.0957 37.3691,96.0957 L29.6543,96.0957 C18.1797,96.0957 12.418,90.08984 12.418,78.8594 L12.418,29.8848 C12.418,18.6055 18.1797,12.5996 29.6543,12.5996 L109.488,12.5996 C120.914,12.5996 126.773,18.6055 126.773,29.8848 L126.773,78.8594 C126.773,90.08984 120.914,96.0957 109.488,96.0957 L70.5234,96.0957 C66.8125,96.0957 65.0547,96.7793 62.418,99.41602 L42.252,118.9473 Z" id="Shape"></path>
                </g>
                <g id="Medium-L" transform="translate(1184.300000, 841.000000)">
                    <path d="M38.3457,130.9844 C41.4707,130.9844 43.7656,129.4219 47.4766,126.1504 L69.3027,106.96094 L110.025,106.96094 C128.092,106.96094 138.443,96.414062 138.443,78.543 L138.443,28.6406 C138.443,10.7695 128.092,0.2227 110.025,0.2227 L28.4824,0.2227 C10.3672,0.2227 0.0645,10.7207 0.0645,28.6406 L0.0645,78.543 C0.0645,96.462891 10.6113,106.96094 28.1406,106.96094 L31.3145,106.96094 L31.3145,122.9766 C31.3145,127.9082 33.9512,130.9844 38.3457,130.9844 Z M40.9824,118.9238 L40.9824,100.75977 C40.9824,97.488281 39.6152,96.21875 36.4414,96.21875 L28.7754,96.21875 C16.8125,96.21875 10.8066,89.91992 10.8066,78.25 L10.8066,28.9824 C10.8066,17.3125 16.8125,10.9648 28.7754,10.9648 L109.732,10.9648 C121.598,10.9648 127.701,17.3125 127.701,28.9824 L127.701,78.25 C127.701,89.91992 121.598,96.21875 109.732,96.21875 L68.8633,96.21875 C65.4453,96.21875 63.7363,96.804688 61.2949,99.24609 L40.9824,118.9238 Z" id="Shape"></path>
                </g>
                <g id="Regular-L" transform="translate(888.010000, 842.000000)">
                    <path d="M37.1738,128.959 C39.8594,128.959 41.7148,127.543 44.8887,124.7109 L66.9102,105.32617 L110.074,105.32617 C127.75,105.32617 137.613,95.21875 137.613,77.8359 L137.613,28.0312 C137.613,10.5996 127.75,0.4922 110.074,0.4922 L27.6035,0.4922 C9.8789,0.4922 0.0645,10.5508 0.0645,28.0312 L0.0645,77.8359 C0.0645,95.316406 9.8789,105.32617 27.6035,105.32617 L31.2656,105.32617 L31.2656,122.123 C31.2656,126.2734 33.4141,128.959 37.1738,128.959 Z M39.3223,119.1445 L39.3223,100.78516 C39.3223,97.80664 38.1992,96.683594 35.2695,96.683594 L27.6523,96.683594 C15.0547,96.683594 8.707,89.94531 8.707,77.7383 L8.707,28.0801 C8.707,15.873 15.0547,9.1348 27.6523,9.1348 L110.025,9.1348 C122.477,9.1348 128.971,15.873 128.971,28.0801 L128.971,77.7383 C128.971,89.94531 122.477,96.683594 110.025,96.683594 L66.7148,96.683594 C63.6387,96.683594 62.0273,97.17188 59.8789,99.36914 L39.3223,119.1445 Z" id="Shape"></path>
                </g>
                <g id="Light-L" transform="translate(592.200000, 843.000000)">
                    <path d="M34.9277,126.5918 C36.9785,126.5918 38.4922,125.4688 40.7871,123.418 L63.1504,103.98438 L110.074,103.98438 C126.334,103.98438 135.807,94.316406 135.807,78.3008 L135.807,26.3965 C135.807,10.3809 126.334,0.7129 110.074,0.7129 L25.7969,0.7129 C9.5371,0.7129 0.0645,10.2832 0.0645,26.3965 L0.0645,78.3008 C0.0645,94.414062 9.5371,103.98438 25.7969,103.98438 L30.3379,103.98438 L30.3379,121.3184 C30.3379,124.541 32.0957,126.5918 34.9277,126.5918 Z M36.5391,119.1211 L36.5391,100.51758 C36.5391,98.27148 35.6602,97.34375 33.3652,97.34375 L25.8945,97.34375 C13.541,97.34375 6.7051,90.26367 6.7051,78.1543 L6.7051,26.4941 C6.7051,14.4336 13.541,7.3047 25.8945,7.3047 L109.977,7.3047 C122.135,7.3047 129.166,14.4336 129.166,26.4941 L129.166,78.1543 C129.166,90.26367 122.135,97.34375 109.977,97.34375 L63.3457,97.34375 C60.8066,97.34375 59.4883,97.7832 57.584,99.63867 L36.5391,119.1211 Z" id="Shape"></path>
                </g>
                <g id="Thin-L" transform="translate(296.683000, 845.000000)">
                    <path d="M31.9492,122.7852 C33.2188,122.7852 34.2441,122.0527 35.416,121.0273 L58.2188,101.54492 L110.074,101.54492 C124.43,101.54492 133.414,92.365234 133.414,78.2051 L133.414,23.6152 C133.414,9.4551 124.43,0.2754 110.074,0.2754 L23.3555,0.2754 C9.0488,0.2754 0.0645,9.3086 0.0645,23.6152 L0.0645,78.2051 C0.0645,92.511719 9.0488,101.54492 23.3555,101.54492 L29.1172,101.54492 L29.1172,119.5137 C29.1172,121.5156 30.2891,122.7852 31.9492,122.7852 Z M32.8281,118.4395 L32.8281,99.54297 C32.8281,98.17578 32.2422,97.58984 30.875,97.58984 L23.502,97.58984 C11.5391,97.58984 3.9707,90.02148 3.9707,78.0586 L3.9707,23.7617 C3.9707,11.7988 11.5391,4.2305 23.502,4.2305 L109.928,4.2305 C121.646,4.2305 129.459,11.7988 129.459,23.7617 L129.459,78.0586 C129.459,90.02148 121.646,97.58984 109.928,97.58984 L58.8535,97.58984 C57.0469,97.58984 56.1191,97.93164 54.6055,99.34766 L32.8281,118.4395 Z" id="Shape"></path>
                </g>
                <g id="Ultralight-L" transform="translate(0.607000, 846.000000)">
                    <path d="M30.4355,120.8574 C31.3145,120.8574 32.0469,120.3203 32.6816,119.832 L55.6797,100.30078 L110.074,100.30078 C123.453,100.30078 132.145,91.414062 132.145,78.1816 L132.145,22.1758 C132.145,8.9922 123.453,0.1055 110.074,0.1055 L22.1348,0.1055 C8.8047,0.1055 0.0645,8.7969 0.0645,22.1758 L0.0645,78.1816 C0.0645,91.560547 8.8047,100.30078 22.1348,100.30078 L28.4824,100.30078 L28.4824,118.6113 C28.4824,120.0273 29.3613,120.8574 30.4355,120.8574 Z M30.9238,118.0742 L30.9238,99.03125 C30.9238,98.15234 30.4844,97.71289 29.6055,97.71289 L22.3301,97.71289 C10.5137,97.71289 2.6035,89.90039 2.6035,78.0352 L2.6035,22.3711 C2.6035,10.5059 10.5137,2.6445 22.3301,2.6445 L109.928,2.6445 C121.354,2.6445 129.605,10.5059 129.605,22.3711 L129.605,78.0352 C129.605,89.90039 121.354,97.71289 109.928,97.71289 L56.5098,97.71289 C55.0938,97.71289 54.4102,98.05469 53.043,99.22656 L30.9238,118.0742 Z" id="Shape"></path>
                </g>
                <g id="Black-M" transform="translate(2384.580000, 418.000000)">
                    <path d="M35.168,113.0469 C39.5625,113.0469 43.4199,111.4355 48.8398,106.748 L64.9043,92.97852 L85.4609,92.97852 C100.793,92.97852 111.193,82.57812 111.193,67.2461 L111.193,26.7188 C111.193,11.3867 100.793,0.9863 85.4609,0.9863 L26.1836,0.9863 C10.8516,0.9863 0.4512,11.3867 0.4512,26.7188 L0.4512,67.2461 C0.4512,82.57812 12.1211,92.97852 24.2793,92.97852 L24.6211,92.97852 L24.6211,101.5723 C24.6211,108.75 28.7227,113.0469 35.168,113.0469 Z M39.4648,92.97852 L39.4648,80.18555 C39.4648,76.1816 37.1699,74.668 33.9473,74.668 L27.8438,74.668 C21.9355,74.668 18.7617,71.7383 18.7617,65.5859 L18.7617,28.3789 C18.7617,22.2266 21.9355,19.2969 27.8438,19.2969 L83.8008,19.2969 C89.66,19.2969 92.883,22.2266 92.883,28.3789 L92.883,65.5859 C92.883,71.7383 89.66,74.668 83.8008,74.668 L63.2441,74.668 C59.0938,74.668 57.4824,75.5957 54.3574,78.623 L39.4648,92.97852 Z" id="Shape"></path>
                    <path d="M57.7178516,71.3110352 C61.2627734,71.3110352 64.2795378,70.8723958 66.7681445,69.9951172 L66.7681445,66.6113281 C65.8908659,67.0052083 64.6241829,67.3185221 62.9680957,67.5512695 C61.3120085,67.7840169 59.5798307,67.9003906 57.7715625,67.9003906 C54.1729297,67.9003906 50.9457975,67.1708171 48.090166,65.7116699 C45.2345345,64.2525228 42.983151,62.1130371 41.3360156,59.2932129 C39.6888802,56.4733887 38.8653125,53.0314128 38.8653125,48.9672852 L38.8653125,48.9404297 C38.8653125,46.1474609 39.3129036,43.5872396 40.2080859,41.2597656 C41.1032682,38.9322917 42.3654753,36.9181315 43.994707,35.2172852 C45.6239388,33.5164388 47.535153,32.2005208 49.7283496,31.2695312 C51.9215462,30.3385417 54.3161589,29.8730469 56.9121875,29.8730469 C60.475013,29.8730469 63.6171029,30.5712891 66.338457,31.9677734 C69.0598112,33.3642578 71.1858691,35.3426107 72.7166309,37.902832 C74.2473926,40.4630534 75.0127734,43.5066732 75.0127734,47.0336914 L75.0127734,47.0605469 C75.0127734,50.3369141 74.529375,52.816569 73.5625781,54.4995117 C72.5957813,56.1824544 71.4051888,57.0239258 69.9908008,57.0239258 C68.9344857,57.0239258 68.0751107,56.5494792 67.4126758,55.6005859 C66.7502409,54.6516927 66.4190234,53.2552083 66.4190234,51.4111328 L66.4190234,38.3325195 L62.3638477,38.3325195 L62.3638477,41.6088867 L62.1490039,41.6088867 C61.6477018,40.4630534 60.7972786,39.5454915 59.5977344,38.8562012 C58.3981901,38.1669108 57.0822721,37.8222656 55.6499805,37.8222656 C53.8238086,37.8222656 52.2080046,38.2922363 50.8025684,39.2321777 C49.3971322,40.1721191 48.2960579,41.4746094 47.4993457,43.1396484 C46.7026335,44.8046875 46.3042773,46.7382812 46.3042773,48.9404297 L46.3042773,48.9672852 C46.3042773,51.2410482 46.6936816,53.2283529 47.4724902,54.9291992 C48.2512988,56.6300456 49.3434212,57.9549154 50.7488574,58.9038086 C52.1542936,59.8527018 53.7880013,60.3271484 55.6499805,60.3271484 C57.3687305,60.3271484 58.8860645,59.9287923 60.2019824,59.1320801 C61.5179004,58.3353678 62.4891732,57.1223958 63.1158008,55.4931641 L63.3575,55.4931641 L63.4380664,55.7348633 C63.8856576,57.0776367 64.6599902,58.2189941 65.7610645,59.1589355 C66.8621387,60.098877 68.2541471,60.5688477 69.9370898,60.5688477 C71.6021289,60.5688477 73.1060352,60.0585938 74.4488086,59.0380859 C75.791582,58.0175781 76.852373,56.5047201 77.6311816,54.4995117 C78.4099902,52.4943034 78.7993945,50.0056966 78.7993945,47.0336914 L78.7993945,47.0068359 C78.7993945,42.7994792 77.8684049,39.1605632 76.0064258,36.0900879 C74.1444466,33.0196126 71.5931771,30.6518555 68.3526172,28.9868164 C65.1120573,27.3217773 61.4149544,26.4892578 57.2613086,26.4892578 C54.0028451,26.4892578 51.0174121,27.0308431 48.3050098,28.1140137 C45.5926074,29.1971842 43.2472298,30.7324219 41.268877,32.7197266 C39.2905241,34.7070312 37.7642383,37.0703125 36.6900195,39.8095703 C35.6158008,42.5488281 35.0786914,45.5834961 35.0786914,48.9135742 L35.0786914,48.9404297 C35.0786914,52.5390625 35.6381803,55.7303874 36.7571582,58.5144043 C37.8761361,61.2984212 39.4516569,63.6393229 41.4837207,65.5371094 C43.5157845,67.4348958 45.9103971,68.8716634 48.6675586,69.8474121 C51.4247201,70.8231608 54.4414844,71.3110352 57.7178516,71.3110352 Z M56.2676563,56.5405273 C55.1039193,56.5405273 54.0968392,56.2361654 53.246416,55.6274414 C52.3959928,55.0187174 51.7425098,54.1548665 51.2859668,53.0358887 C50.8294238,51.9169108 50.6011523,50.5696615 50.6011523,48.9941406 L50.6011523,48.9672852 C50.6011523,47.409668 50.8294238,46.0758464 51.2859668,44.9658203 C51.7425098,43.8557943 52.3959928,43.0053711 53.246416,42.4145508 C54.0968392,41.8237305 55.1218229,41.5283203 56.3213672,41.5283203 C58.1296354,41.5283203 59.5798307,42.199707 60.6719531,43.5424805 C61.7640755,44.8852539 62.3101367,46.702474 62.3101367,48.9941406 L62.3101367,49.0209961 C62.3101367,51.3126628 61.7640755,53.1388346 60.6719531,54.4995117 C59.5798307,55.8601888 58.1117318,56.5405273 56.2676563,56.5405273 Z" id="@"></path>
                </g>
                <g id="Heavy-M" transform="translate(2088.230000, 420.000000)">
                    <path d="M34.0449,109.9238 C38,109.9238 41.3203,108.4102 46.1543,104.2109 L62.4141,90.14844 L85.5098,90.14844 C100.646,90.14844 110.461,80.28516 110.461,65.1973 L110.461,25.4512 C110.461,10.3633 100.646,0.5 85.5098,0.5 L25.4023,0.5 C10.2656,0.5 0.4512,10.3633 0.4512,25.4512 L0.4512,65.1973 C0.4512,80.28516 11.2422,90.14844 23.9375,90.14844 L24.7188,90.14844 L24.7188,99.7676 C24.7188,106.1152 28.332,109.9238 34.0449,109.9238 Z M37.8047,92.54102 L37.8047,79.40625 C37.8047,75.6953 35.8516,74.3281 32.7266,74.3281 L26.6719,74.3281 C19.8359,74.3281 16.2715,70.8613 16.2715,63.9277 L16.2715,26.7207 C16.2715,19.7871 19.8359,16.3203 26.6719,16.3203 L84.2402,16.3203 C91.076,16.3203 94.641,19.7871 94.641,26.7207 L94.641,63.9277 C94.641,70.8613 91.076,74.3281 84.2402,74.3281 L61.0957,74.3281 C57.2871,74.3281 55.7246,75.1582 52.8926,77.8926 L37.8047,92.54102 Z" id="Shape"></path>
                    <path d="M56.0678516,69.3110352 C59.6127734,69.3110352 62.6295378,68.8723958 65.1181445,67.9951172 L65.1181445,64.6113281 C64.2408659,65.0052083 62.9741829,65.3185221 61.3180957,65.5512695 C59.6620085,65.7840169 57.9298307,65.9003906 56.1215625,65.9003906 C52.5229297,65.9003906 49.2957975,65.1708171 46.440166,63.7116699 C43.5845345,62.2525228 41.333151,60.1130371 39.6860156,57.2932129 C38.0388802,54.4733887 37.2153125,51.0314128 37.2153125,46.9672852 L37.2153125,46.9404297 C37.2153125,44.1474609 37.6629036,41.5872396 38.5580859,39.2597656 C39.4532682,36.9322917 40.7154753,34.9181315 42.344707,33.2172852 C43.9739388,31.5164388 45.885153,30.2005208 48.0783496,29.2695312 C50.2715462,28.3385417 52.6661589,27.8730469 55.2621875,27.8730469 C58.825013,27.8730469 61.9671029,28.5712891 64.688457,29.9677734 C67.4098112,31.3642578 69.5358691,33.3426107 71.0666309,35.902832 C72.5973926,38.4630534 73.3627734,41.5066732 73.3627734,45.0336914 L73.3627734,45.0605469 C73.3627734,48.3369141 72.879375,50.816569 71.9125781,52.4995117 C70.9457812,54.1824544 69.7551888,55.0239258 68.3408008,55.0239258 C67.2844857,55.0239258 66.4251107,54.5494792 65.7626758,53.6005859 C65.1002409,52.6516927 64.7690234,51.2552083 64.7690234,49.4111328 L64.7690234,36.3325195 L60.7138477,36.3325195 L60.7138477,39.6088867 L60.4990039,39.6088867 C59.9977018,38.4630534 59.1472786,37.5454915 57.9477344,36.8562012 C56.7481901,36.1669108 55.4322721,35.8222656 53.9999805,35.8222656 C52.1738086,35.8222656 50.5580046,36.2922363 49.1525684,37.2321777 C47.7471322,38.1721191 46.6460579,39.4746094 45.8493457,41.1396484 C45.0526335,42.8046875 44.6542773,44.7382812 44.6542773,46.9404297 L44.6542773,46.9672852 C44.6542773,49.2410482 45.0436816,51.2283529 45.8224902,52.9291992 C46.6012988,54.6300456 47.6934212,55.9549154 49.0988574,56.9038086 C50.5042936,57.8527018 52.1380013,58.3271484 53.9999805,58.3271484 C55.7187305,58.3271484 57.2360645,57.9287923 58.5519824,57.1320801 C59.8679004,56.3353678 60.8391732,55.1223958 61.4658008,53.4931641 L61.7075,53.4931641 L61.7880664,53.7348633 C62.2356576,55.0776367 63.0099902,56.2189941 64.1110645,57.1589355 C65.2121387,58.098877 66.6041471,58.5688477 68.2870898,58.5688477 C69.9521289,58.5688477 71.4560352,58.0585938 72.7988086,57.0380859 C74.141582,56.0175781 75.202373,54.5047201 75.9811816,52.4995117 C76.7599902,50.4943034 77.1493945,48.0056966 77.1493945,45.0336914 L77.1493945,45.0068359 C77.1493945,40.7994792 76.2184049,37.1605632 74.3564258,34.0900879 C72.4944466,31.0196126 69.9431771,28.6518555 66.7026172,26.9868164 C63.4620573,25.3217773 59.7649544,24.4892578 55.6113086,24.4892578 C52.3528451,24.4892578 49.3674121,25.0308431 46.6550098,26.1140137 C43.9426074,27.1971842 41.5972298,28.7324219 39.618877,30.7197266 C37.6405241,32.7070312 36.1142383,35.0703125 35.0400195,37.8095703 C33.9658008,40.5488281 33.4286914,43.5834961 33.4286914,46.9135742 L33.4286914,46.9404297 C33.4286914,50.5390625 33.9881803,53.7303874 35.1071582,56.5144043 C36.2261361,59.2984212 37.8016569,61.6393229 39.8337207,63.5371094 C41.8657845,65.4348958 44.2603971,66.8716634 47.0175586,67.8474121 C49.7747201,68.8231608 52.7914844,69.3110352 56.0678516,69.3110352 Z M54.6176562,54.5405273 C53.4539193,54.5405273 52.4468392,54.2361654 51.596416,53.6274414 C50.7459928,53.0187174 50.0925098,52.1548665 49.6359668,51.0358887 C49.1794238,49.9169108 48.9511523,48.5696615 48.9511523,46.9941406 L48.9511523,46.9672852 C48.9511523,45.409668 49.1794238,44.0758464 49.6359668,42.9658203 C50.0925098,41.8557943 50.7459928,41.0053711 51.596416,40.4145508 C52.4468392,39.8237305 53.4718229,39.5283203 54.6713672,39.5283203 C56.4796354,39.5283203 57.9298307,40.199707 59.0219531,41.5424805 C60.1140755,42.8852539 60.6601367,44.702474 60.6601367,46.9941406 L60.6601367,47.0209961 C60.6601367,49.3126628 60.1140755,51.1388346 59.0219531,52.4995117 C57.9298307,53.8601888 56.4617318,54.5405273 54.6176562,54.5405273 Z" id="@"></path>
                </g>
                <g id="Bold-M" transform="translate(1791.940000, 422.000000)">
                    <path d="M32.8242,106.7031 C36.2422,106.7031 38.9766,105.2871 43.1758,101.625 L59.6309,87.2207 L85.5586,87.2207 C100.5,87.2207 109.631,77.99219 109.631,63.1973 L109.631,24.2324 C109.631,9.4375 100.5,0.209 85.5586,0.209 L24.4746,0.209 C9.582,0.209 0.4512,9.3887 0.4512,24.2324 L0.4512,63.1973 C0.4512,78.04102 10.2168,87.2207 23.5469,87.2207 L24.8652,87.2207 L24.8652,97.9141 C24.8652,103.3828 27.8926,106.7031 32.8242,106.7031 Z M35.9492,92.20117 L35.9492,78.77344 C35.9492,75.4043 34.3379,74.1348 31.3594,74.1348 L25.3535,74.1348 C17.4434,74.1348 13.5371,70.1797 13.5371,62.3672 L13.5371,25.0625 C13.5371,17.25 17.4434,13.2461 25.3535,13.2461 L84.7285,13.2461 C92.59,13.2461 96.545,17.25 96.545,25.0625 L96.545,62.3672 C96.545,70.1797 92.59,74.1348 84.7285,74.1348 L58.6543,74.1348 C55.2363,74.1348 53.7227,74.8184 51.2324,77.30859 L35.9492,92.20117 Z" id="Shape"></path>
                    <path d="M59.3578516,67.3110352 C62.9027734,67.3110352 65.9195378,66.8723958 68.4081445,65.9951172 L68.4081445,62.6113281 C67.5308659,63.0052083 66.2641829,63.3185221 64.6080957,63.5512695 C62.9520085,63.7840169 61.2198307,63.9003906 59.4115625,63.9003906 C55.8129297,63.9003906 52.5857975,63.1708171 49.730166,61.7116699 C46.8745345,60.2525228 44.623151,58.1130371 42.9760156,55.2932129 C41.3288802,52.4733887 40.5053125,49.0314128 40.5053125,44.9672852 L40.5053125,44.9404297 C40.5053125,42.1474609 40.9529036,39.5872396 41.8480859,37.2597656 C42.7432682,34.9322917 44.0054753,32.9181315 45.634707,31.2172852 C47.2639388,29.5164388 49.175153,28.2005208 51.3683496,27.2695312 C53.5615462,26.3385417 55.9561589,25.8730469 58.5521875,25.8730469 C62.115013,25.8730469 65.2571029,26.5712891 67.978457,27.9677734 C70.6998112,29.3642578 72.8258691,31.3426107 74.3566309,33.902832 C75.8873926,36.4630534 76.6527734,39.5066732 76.6527734,43.0336914 L76.6527734,43.0605469 C76.6527734,46.3369141 76.169375,48.816569 75.2025781,50.4995117 C74.2357812,52.1824544 73.0451888,53.0239258 71.6308008,53.0239258 C70.5744857,53.0239258 69.7151107,52.5494792 69.0526758,51.6005859 C68.3902409,50.6516927 68.0590234,49.2552083 68.0590234,47.4111328 L68.0590234,34.3325195 L64.0038477,34.3325195 L64.0038477,37.6088867 L63.7890039,37.6088867 C63.2877018,36.4630534 62.4372786,35.5454915 61.2377344,34.8562012 C60.0381901,34.1669108 58.7222721,33.8222656 57.2899805,33.8222656 C55.4638086,33.8222656 53.8480046,34.2922363 52.4425684,35.2321777 C51.0371322,36.1721191 49.9360579,37.4746094 49.1393457,39.1396484 C48.3426335,40.8046875 47.9442773,42.7382812 47.9442773,44.9404297 L47.9442773,44.9672852 C47.9442773,47.2410482 48.3336816,49.2283529 49.1124902,50.9291992 C49.8912988,52.6300456 50.9834212,53.9549154 52.3888574,54.9038086 C53.7942936,55.8527018 55.4280013,56.3271484 57.2899805,56.3271484 C59.0087305,56.3271484 60.5260645,55.9287923 61.8419824,55.1320801 C63.1579004,54.3353678 64.1291732,53.1223958 64.7558008,51.4931641 L64.9975,51.4931641 L65.0780664,51.7348633 C65.5256576,53.0776367 66.2999902,54.2189941 67.4010645,55.1589355 C68.5021387,56.098877 69.8941471,56.5688477 71.5770898,56.5688477 C73.2421289,56.5688477 74.7460352,56.0585938 76.0888086,55.0380859 C77.431582,54.0175781 78.492373,52.5047201 79.2711816,50.4995117 C80.0499902,48.4943034 80.4393945,46.0056966 80.4393945,43.0336914 L80.4393945,43.0068359 C80.4393945,38.7994792 79.5084049,35.1605632 77.6464258,32.0900879 C75.7844466,29.0196126 73.2331771,26.6518555 69.9926172,24.9868164 C66.7520573,23.3217773 63.0549544,22.4892578 58.9013086,22.4892578 C55.6428451,22.4892578 52.6574121,23.0308431 49.9450098,24.1140137 C47.2326074,25.1971842 44.8872298,26.7324219 42.908877,28.7197266 C40.9305241,30.7070312 39.4042383,33.0703125 38.3300195,35.8095703 C37.2558008,38.5488281 36.7186914,41.5834961 36.7186914,44.9135742 L36.7186914,44.9404297 C36.7186914,48.5390625 37.2781803,51.7303874 38.3971582,54.5144043 C39.5161361,57.2984212 41.0916569,59.6393229 43.1237207,61.5371094 C45.1557845,63.4348958 47.5503971,64.8716634 50.3075586,65.8474121 C53.0647201,66.8231608 56.0814844,67.3110352 59.3578516,67.3110352 Z M57.9076562,52.5405273 C56.7439193,52.5405273 55.7368392,52.2361654 54.886416,51.6274414 C54.0359928,51.0187174 53.3825098,50.1548665 52.9259668,49.0358887 C52.4694238,47.9169108 52.2411523,46.5696615 52.2411523,44.9941406 L52.2411523,44.9672852 C52.2411523,43.409668 52.4694238,42.0758464 52.9259668,40.9658203 C53.3825098,39.8557943 54.0359928,39.0053711 54.886416,38.4145508 C55.7368392,37.8237305 56.7618229,37.5283203 57.9613672,37.5283203 C59.7696354,37.5283203 61.2198307,38.199707 62.3119531,39.5424805 C63.4040755,40.8852539 63.9501367,42.702474 63.9501367,44.9941406 L63.9501367,45.0209961 C63.9501367,47.3126628 63.4040755,49.1388346 62.3119531,50.4995117 C61.2198307,51.8601888 59.7517318,52.5405273 57.9076562,52.5405273 Z" id="@"></path>
                </g>
                <g id="Semibold-M" transform="translate(1495.520000, 423.000000)">
                    <path d="M31.9941,104.873 C35.0215,104.873 37.3652,103.5059 41.0762,100.2344 L57.7266,85.585938 L85.6074,85.585938 C100.402,85.585938 109.045,76.79688 109.045,62.1973 L109.045,23.7695 C109.045,9.1699 100.402,0.332 85.6074,0.332 L23.8887,0.332 C9.0938,0.332 0.4512,9.1211 0.4512,23.7695 L0.4512,62.1973 C0.4512,76.8457 9.4844,85.585938 23.2539,85.585938 L24.9629,85.585938 L24.9629,97.0117 C24.9629,101.8457 27.5996,104.873 31.9941,104.873 Z M34.6797,92.42188 L34.6797,78.70117 C34.6797,75.57617 33.3125,74.4531 30.4316,74.4531 L24.4258,74.4531 C15.7832,74.4531 11.6328,70.0586 11.6328,61.6113 L11.6328,24.3066 C11.6328,15.8594 15.7832,11.5137 24.4258,11.5137 L85.0703,11.5137 C93.664,11.5137 97.863,15.8594 97.863,24.3066 L97.863,61.6113 C97.863,70.0586 93.664,74.4531 85.0703,74.4531 L56.9941,74.4531 C53.8203,74.4531 52.3555,74.9902 50.0605,77.28516 L34.6797,92.42188 Z" id="Shape"></path>
                    <path d="M54.7778516,66.3110352 C58.3227734,66.3110352 61.3395378,65.8723958 63.8281445,64.9951172 L63.8281445,61.6113281 C62.9508659,62.0052083 61.6841829,62.3185221 60.0280957,62.5512695 C58.3720085,62.7840169 56.6398307,62.9003906 54.8315625,62.9003906 C51.2329297,62.9003906 48.0057975,62.1708171 45.150166,60.7116699 C42.2945345,59.2525228 40.043151,57.1130371 38.3960156,54.2932129 C36.7488802,51.4733887 35.9253125,48.0314128 35.9253125,43.9672852 L35.9253125,43.9404297 C35.9253125,41.1474609 36.3729036,38.5872396 37.2680859,36.2597656 C38.1632682,33.9322917 39.4254753,31.9181315 41.054707,30.2172852 C42.6839388,28.5164388 44.595153,27.2005208 46.7883496,26.2695312 C48.9815462,25.3385417 51.3761589,24.8730469 53.9721875,24.8730469 C57.535013,24.8730469 60.6771029,25.5712891 63.398457,26.9677734 C66.1198112,28.3642578 68.2458691,30.3426107 69.7766309,32.902832 C71.3073926,35.4630534 72.0727734,38.5066732 72.0727734,42.0336914 L72.0727734,42.0605469 C72.0727734,45.3369141 71.589375,47.816569 70.6225781,49.4995117 C69.6557813,51.1824544 68.4651888,52.0239258 67.0508008,52.0239258 C65.9944857,52.0239258 65.1351107,51.5494792 64.4726758,50.6005859 C63.8102409,49.6516927 63.4790234,48.2552083 63.4790234,46.4111328 L63.4790234,33.3325195 L59.4238477,33.3325195 L59.4238477,36.6088867 L59.2090039,36.6088867 C58.7077018,35.4630534 57.8572786,34.5454915 56.6577344,33.8562012 C55.4581901,33.1669108 54.1422721,32.8222656 52.7099805,32.8222656 C50.8838086,32.8222656 49.2680046,33.2922363 47.8625684,34.2321777 C46.4571322,35.1721191 45.3560579,36.4746094 44.5593457,38.1396484 C43.7626335,39.8046875 43.3642773,41.7382812 43.3642773,43.9404297 L43.3642773,43.9672852 C43.3642773,46.2410482 43.7536816,48.2283529 44.5324902,49.9291992 C45.3112988,51.6300456 46.4034212,52.9549154 47.8088574,53.9038086 C49.2142936,54.8527018 50.8480013,55.3271484 52.7099805,55.3271484 C54.4287305,55.3271484 55.9460645,54.9287923 57.2619824,54.1320801 C58.5779004,53.3353678 59.5491732,52.1223958 60.1758008,50.4931641 L60.4175,50.4931641 L60.4980664,50.7348633 C60.9456576,52.0776367 61.7199902,53.2189941 62.8210645,54.1589355 C63.9221387,55.098877 65.3141471,55.5688477 66.9970898,55.5688477 C68.6621289,55.5688477 70.1660352,55.0585938 71.5088086,54.0380859 C72.851582,53.0175781 73.912373,51.5047201 74.6911816,49.4995117 C75.4699902,47.4943034 75.8593945,45.0056966 75.8593945,42.0336914 L75.8593945,42.0068359 C75.8593945,37.7994792 74.9284049,34.1605632 73.0664258,31.0900879 C71.2044466,28.0196126 68.6531771,25.6518555 65.4126172,23.9868164 C62.1720573,22.3217773 58.4749544,21.4892578 54.3213086,21.4892578 C51.0628451,21.4892578 48.0774121,22.0308431 45.3650098,23.1140137 C42.6526074,24.1971842 40.3072298,25.7324219 38.328877,27.7197266 C36.3505241,29.7070312 34.8242383,32.0703125 33.7500195,34.8095703 C32.6758008,37.5488281 32.1386914,40.5834961 32.1386914,43.9135742 L32.1386914,43.9404297 C32.1386914,47.5390625 32.6981803,50.7303874 33.8171582,53.5144043 C34.9361361,56.2984212 36.5116569,58.6393229 38.5437207,60.5371094 C40.5757845,62.4348958 42.9703971,63.8716634 45.7275586,64.8474121 C48.4847201,65.8231608 51.5014844,66.3110352 54.7778516,66.3110352 Z M53.3276563,51.5405273 C52.1639193,51.5405273 51.1568392,51.2361654 50.306416,50.6274414 C49.4559928,50.0187174 48.8025098,49.1548665 48.3459668,48.0358887 C47.8894238,46.9169108 47.6611523,45.5696615 47.6611523,43.9941406 L47.6611523,43.9672852 C47.6611523,42.409668 47.8894238,41.0758464 48.3459668,39.9658203 C48.8025098,38.8557943 49.4559928,38.0053711 50.306416,37.4145508 C51.1568392,36.8237305 52.1818229,36.5283203 53.3813672,36.5283203 C55.1896354,36.5283203 56.6398307,37.199707 57.7319531,38.5424805 C58.8240755,39.8852539 59.3701367,41.702474 59.3701367,43.9941406 L59.3701367,44.0209961 C59.3701367,46.3126628 58.8240755,48.1388346 57.7319531,49.4995117 C56.6398307,50.8601888 55.1717318,51.5405273 53.3276563,51.5405273 Z" id="@"></path>
                </g>
                <g id="Medium-M" transform="translate(1199.030000, 424.000000)">
                    <path d="M31.3105,103.2383 C34.0938,103.2383 36.1445,101.8711 39.5137,98.8926 L56.2617,84.146484 L85.6562,84.146484 C100.354,84.146484 108.605,75.65039 108.605,61.1484 L108.605,23.209 C108.605,8.707 100.354,0.2109 85.6562,0.2109 L23.4004,0.2109 C8.752,0.2109 0.4512,8.707 0.4512,23.209 L0.4512,61.1484 C0.4512,75.69922 8.9961,84.146484 23.0586,84.146484 L25.0605,84.146484 L25.0605,96.1094 C25.0605,100.4551 27.3555,103.2383 31.3105,103.2383 Z M33.752,92.30078 L33.752,78.38477 C33.752,75.50391 32.4824,74.38086 29.748,74.38086 L23.7422,74.38086 C14.5625,74.38086 10.168,69.7422 10.168,60.8555 L10.168,23.502 C10.168,14.6152 14.5625,9.9766 23.7422,9.9766 L85.3633,9.9766 C94.494,9.9766 98.889,14.6152 98.889,23.502 L98.889,60.8555 C98.889,69.7422 94.494,74.38086 85.3633,74.38086 L55.7246,74.38086 C52.7461,74.38086 51.2812,74.86914 49.2305,77.01758 L33.752,92.30078 Z" id="Shape"></path>
                    <path d="M56.2678516,65.3110352 C59.8127734,65.3110352 62.8295378,64.8723958 65.3181445,63.9951172 L65.3181445,60.6113281 C64.4408659,61.0052083 63.1741829,61.3185221 61.5180957,61.5512695 C59.8620085,61.7840169 58.1298307,61.9003906 56.3215625,61.9003906 C52.7229297,61.9003906 49.4957975,61.1708171 46.640166,59.7116699 C43.7845345,58.2525228 41.533151,56.1130371 39.8860156,53.2932129 C38.2388802,50.4733887 37.4153125,47.0314128 37.4153125,42.9672852 L37.4153125,42.9404297 C37.4153125,40.1474609 37.8629036,37.5872396 38.7580859,35.2597656 C39.6532682,32.9322917 40.9154753,30.9181315 42.544707,29.2172852 C44.1739388,27.5164388 46.085153,26.2005208 48.2783496,25.2695312 C50.4715462,24.3385417 52.8661589,23.8730469 55.4621875,23.8730469 C59.025013,23.8730469 62.1671029,24.5712891 64.888457,25.9677734 C67.6098112,27.3642578 69.7358691,29.3426107 71.2666309,31.902832 C72.7973926,34.4630534 73.5627734,37.5066732 73.5627734,41.0336914 L73.5627734,41.0605469 C73.5627734,44.3369141 73.079375,46.816569 72.1125781,48.4995117 C71.1457813,50.1824544 69.9551888,51.0239258 68.5408008,51.0239258 C67.4844857,51.0239258 66.6251107,50.5494792 65.9626758,49.6005859 C65.3002409,48.6516927 64.9690234,47.2552083 64.9690234,45.4111328 L64.9690234,32.3325195 L60.9138477,32.3325195 L60.9138477,35.6088867 L60.6990039,35.6088867 C60.1977018,34.4630534 59.3472786,33.5454915 58.1477344,32.8562012 C56.9481901,32.1669108 55.6322721,31.8222656 54.1999805,31.8222656 C52.3738086,31.8222656 50.7580046,32.2922363 49.3525684,33.2321777 C47.9471322,34.1721191 46.8460579,35.4746094 46.0493457,37.1396484 C45.2526335,38.8046875 44.8542773,40.7382812 44.8542773,42.9404297 L44.8542773,42.9672852 C44.8542773,45.2410482 45.2436816,47.2283529 46.0224902,48.9291992 C46.8012988,50.6300456 47.8934212,51.9549154 49.2988574,52.9038086 C50.7042936,53.8527018 52.3380013,54.3271484 54.1999805,54.3271484 C55.9187305,54.3271484 57.4360645,53.9287923 58.7519824,53.1320801 C60.0679004,52.3353678 61.0391732,51.1223958 61.6658008,49.4931641 L61.9075,49.4931641 L61.9880664,49.7348633 C62.4356576,51.0776367 63.2099902,52.2189941 64.3110645,53.1589355 C65.4121387,54.098877 66.8041471,54.5688477 68.4870898,54.5688477 C70.1521289,54.5688477 71.6560352,54.0585938 72.9988086,53.0380859 C74.341582,52.0175781 75.402373,50.5047201 76.1811816,48.4995117 C76.9599902,46.4943034 77.3493945,44.0056966 77.3493945,41.0336914 L77.3493945,41.0068359 C77.3493945,36.7994792 76.4184049,33.1605632 74.5564258,30.0900879 C72.6944466,27.0196126 70.1431771,24.6518555 66.9026172,22.9868164 C63.6620573,21.3217773 59.9649544,20.4892578 55.8113086,20.4892578 C52.5528451,20.4892578 49.5674121,21.0308431 46.8550098,22.1140137 C44.1426074,23.1971842 41.7972298,24.7324219 39.818877,26.7197266 C37.8405241,28.7070312 36.3142383,31.0703125 35.2400195,33.8095703 C34.1658008,36.5488281 33.6286914,39.5834961 33.6286914,42.9135742 L33.6286914,42.9404297 C33.6286914,46.5390625 34.1881803,49.7303874 35.3071582,52.5144043 C36.4261361,55.2984212 38.0016569,57.6393229 40.0337207,59.5371094 C42.0657845,61.4348958 44.4603971,62.8716634 47.2175586,63.8474121 C49.9747201,64.8231608 52.9914844,65.3110352 56.2678516,65.3110352 Z M54.8176563,50.5405273 C53.6539193,50.5405273 52.6468392,50.2361654 51.796416,49.6274414 C50.9459928,49.0187174 50.2925098,48.1548665 49.8359668,47.0358887 C49.3794238,45.9169108 49.1511523,44.5696615 49.1511523,42.9941406 L49.1511523,42.9672852 C49.1511523,41.409668 49.3794238,40.0758464 49.8359668,38.9658203 C50.2925098,37.8557943 50.9459928,37.0053711 51.796416,36.4145508 C52.6468392,35.8237305 53.6718229,35.5283203 54.8713672,35.5283203 C56.6796354,35.5283203 58.1298307,36.199707 59.2219531,37.5424805 C60.3140755,38.8852539 60.8601367,40.702474 60.8601367,42.9941406 L60.8601367,43.0209961 C60.8601367,45.3126628 60.3140755,47.1388346 59.2219531,48.4995117 C58.1298307,49.8601888 56.6617318,50.5405273 54.8176563,50.5405273 Z" id="@"></path>
                </g>
                <g id="Regular-M" transform="translate(902.580000, 425.000000)">
                    <path d="M30.4805,101.4082 C32.873,101.4082 34.5332,100.1387 37.5117,97.502 L54.3574,82.511719 L85.7051,82.511719 C100.256,82.511719 108.068,74.45508 108.068,60.1484 L108.068,22.7461 C108.068,8.4395 100.256,0.3828 85.7051,0.3828 L22.8145,0.3828 C8.2637,0.3828 0.4512,8.3906 0.4512,22.7461 L0.4512,60.1484 C0.4512,74.50391 8.2637,82.511719 22.8145,82.511719 L25.1582,82.511719 L25.1582,95.207 C25.1582,98.9668 27.0625,101.4082 30.4805,101.4082 Z M32.4824,92.47266 L32.4824,78.3125 C32.4824,75.67578 31.457,74.65039 28.8203,74.65039 L22.8145,74.65039 C12.9512,74.65039 8.3125,69.6211 8.3125,60.0996 L8.3125,22.7461 C8.3125,13.2246 12.9512,8.2441 22.8145,8.2441 L85.7051,8.2441 C95.52,8.2441 100.207,13.2246 100.207,22.7461 L100.207,60.0996 C100.207,69.6211 95.52,74.65039 85.7051,74.65039 L54.0645,74.65039 C51.3301,74.65039 49.9629,75.04102 48.1074,76.94531 L32.4824,92.47266 Z" id="Shape"></path>
                    <path d="M54.7178516,64.3110352 C58.2627734,64.3110352 61.2795378,63.8723958 63.7681445,62.9951172 L63.7681445,59.6113281 C62.8908659,60.0052083 61.6241829,60.3185221 59.9680957,60.5512695 C58.3120085,60.7840169 56.5798307,60.9003906 54.7715625,60.9003906 C51.1729297,60.9003906 47.9457975,60.1708171 45.090166,58.7116699 C42.2345345,57.2525228 39.983151,55.1130371 38.3360156,52.2932129 C36.6888802,49.4733887 35.8653125,46.0314128 35.8653125,41.9672852 L35.8653125,41.9404297 C35.8653125,39.1474609 36.3129036,36.5872396 37.2080859,34.2597656 C38.1032682,31.9322917 39.3654753,29.9181315 40.994707,28.2172852 C42.6239388,26.5164388 44.535153,25.2005208 46.7283496,24.2695312 C48.9215462,23.3385417 51.3161589,22.8730469 53.9121875,22.8730469 C57.475013,22.8730469 60.6171029,23.5712891 63.338457,24.9677734 C66.0598112,26.3642578 68.1858691,28.3426107 69.7166309,30.902832 C71.2473926,33.4630534 72.0127734,36.5066732 72.0127734,40.0336914 L72.0127734,40.0605469 C72.0127734,43.3369141 71.529375,45.816569 70.5625781,47.4995117 C69.5957813,49.1824544 68.4051888,50.0239258 66.9908008,50.0239258 C65.9344857,50.0239258 65.0751107,49.5494792 64.4126758,48.6005859 C63.7502409,47.6516927 63.4190234,46.2552083 63.4190234,44.4111328 L63.4190234,31.3325195 L59.3638477,31.3325195 L59.3638477,34.6088867 L59.1490039,34.6088867 C58.6477018,33.4630534 57.7972786,32.5454915 56.5977344,31.8562012 C55.3981901,31.1669108 54.0822721,30.8222656 52.6499805,30.8222656 C50.8238086,30.8222656 49.2080046,31.2922363 47.8025684,32.2321777 C46.3971322,33.1721191 45.2960579,34.4746094 44.4993457,36.1396484 C43.7026335,37.8046875 43.3042773,39.7382812 43.3042773,41.9404297 L43.3042773,41.9672852 C43.3042773,44.2410482 43.6936816,46.2283529 44.4724902,47.9291992 C45.2512988,49.6300456 46.3434212,50.9549154 47.7488574,51.9038086 C49.1542936,52.8527018 50.7880013,53.3271484 52.6499805,53.3271484 C54.3687305,53.3271484 55.8860645,52.9287923 57.2019824,52.1320801 C58.5179004,51.3353678 59.4891732,50.1223958 60.1158008,48.4931641 L60.3575,48.4931641 L60.4380664,48.7348633 C60.8856576,50.0776367 61.6599902,51.2189941 62.7610645,52.1589355 C63.8621387,53.098877 65.2541471,53.5688477 66.9370898,53.5688477 C68.6021289,53.5688477 70.1060352,53.0585938 71.4488086,52.0380859 C72.791582,51.0175781 73.852373,49.5047201 74.6311816,47.4995117 C75.4099902,45.4943034 75.7993945,43.0056966 75.7993945,40.0336914 L75.7993945,40.0068359 C75.7993945,35.7994792 74.8684049,32.1605632 73.0064258,29.0900879 C71.1444466,26.0196126 68.5931771,23.6518555 65.3526172,21.9868164 C62.1120573,20.3217773 58.4149544,19.4892578 54.2613086,19.4892578 C51.0028451,19.4892578 48.0174121,20.0308431 45.3050098,21.1140137 C42.5926074,22.1971842 40.2472298,23.7324219 38.268877,25.7197266 C36.2905241,27.7070312 34.7642383,30.0703125 33.6900195,32.8095703 C32.6158008,35.5488281 32.0786914,38.5834961 32.0786914,41.9135742 L32.0786914,41.9404297 C32.0786914,45.5390625 32.6381803,48.7303874 33.7571582,51.5144043 C34.8761361,54.2984212 36.4516569,56.6393229 38.4837207,58.5371094 C40.5157845,60.4348958 42.9103971,61.8716634 45.6675586,62.8474121 C48.4247201,63.8231608 51.4414844,64.3110352 54.7178516,64.3110352 Z M53.2676563,49.5405273 C52.1039193,49.5405273 51.0968392,49.2361654 50.246416,48.6274414 C49.3959928,48.0187174 48.7425098,47.1548665 48.2859668,46.0358887 C47.8294238,44.9169108 47.6011523,43.5696615 47.6011523,41.9941406 L47.6011523,41.9672852 C47.6011523,40.409668 47.8294238,39.0758464 48.2859668,37.9658203 C48.7425098,36.8557943 49.3959928,36.0053711 50.246416,35.4145508 C51.0968392,34.8237305 52.1218229,34.5283203 53.3213672,34.5283203 C55.1296354,34.5283203 56.5798307,35.199707 57.6719531,36.5424805 C58.7640755,37.8852539 59.3101367,39.702474 59.3101367,41.9941406 L59.3101367,42.0209961 C59.3101367,44.3126628 58.7640755,46.1388346 57.6719531,47.4995117 C56.5798307,48.8601888 55.1117318,49.5405273 53.2676563,49.5405273 Z" id="@"></path>
                </g>
                <g id="Light-M" transform="translate(606.680000, 426.000000)">
                    <path d="M28.4785,99.1875 C30.334,99.1875 31.6523,98.1621 33.8496,96.2578 L51.0371,81.169922 L85.7051,81.169922 C98.938,81.169922 106.457,73.50391 106.457,60.4668 L106.457,21.209 C106.457,8.123 98.938,0.457 85.7051,0.457 L21.2031,0.457 C7.9707,0.457 0.4512,8.0742 0.4512,21.209 L0.4512,60.4668 C0.4512,73.55273 7.9707,81.169922 21.2031,81.169922 L24.3281,81.169922 L24.3281,94.3535 C24.3281,97.2832 25.8418,99.1875 28.4785,99.1875 Z M29.9922,92.3516 L29.9922,77.99609 C29.9922,75.94531 29.1621,75.16406 27.1113,75.16406 L21.252,75.16406 C11.584,75.16406 6.5059,69.793 6.5059,60.418 L6.5059,21.2578 C6.5059,11.834 11.584,6.5117 21.252,6.5117 L85.6562,6.5117 C95.227,6.5117 100.402,11.834 100.402,21.2578 L100.402,60.418 C100.402,69.793 95.227,75.16406 85.6562,75.16406 L50.9883,75.16406 C48.791,75.16406 47.668,75.50586 46.0566,77.11719 L29.9922,92.3516 Z" id="Shape"></path>
                    <path d="M52.6178516,63.3110352 C56.1627734,63.3110352 59.1795378,62.8723958 61.6681445,61.9951172 L61.6681445,58.6113281 C60.7908659,59.0052083 59.5241829,59.3185221 57.8680957,59.5512695 C56.2120085,59.7840169 54.4798307,59.9003906 52.6715625,59.9003906 C49.0729297,59.9003906 45.8457975,59.1708171 42.990166,57.7116699 C40.1345345,56.2525228 37.883151,54.1130371 36.2360156,51.2932129 C34.5888802,48.4733887 33.7653125,45.0314128 33.7653125,40.9672852 L33.7653125,40.9404297 C33.7653125,38.1474609 34.2129036,35.5872396 35.1080859,33.2597656 C36.0032682,30.9322917 37.2654753,28.9181315 38.894707,27.2172852 C40.5239388,25.5164388 42.435153,24.2005208 44.6283496,23.2695312 C46.8215462,22.3385417 49.2161589,21.8730469 51.8121875,21.8730469 C55.375013,21.8730469 58.5171029,22.5712891 61.238457,23.9677734 C63.9598112,25.3642578 66.0858691,27.3426107 67.6166309,29.902832 C69.1473926,32.4630534 69.9127734,35.5066732 69.9127734,39.0336914 L69.9127734,39.0605469 C69.9127734,42.3369141 69.429375,44.816569 68.4625781,46.4995117 C67.4957812,48.1824544 66.3051888,49.0239258 64.8908008,49.0239258 C63.8344857,49.0239258 62.9751107,48.5494792 62.3126758,47.6005859 C61.6502409,46.6516927 61.3190234,45.2552083 61.3190234,43.4111328 L61.3190234,30.3325195 L57.2638477,30.3325195 L57.2638477,33.6088867 L57.0490039,33.6088867 C56.5477018,32.4630534 55.6972786,31.5454915 54.4977344,30.8562012 C53.2981901,30.1669108 51.9822721,29.8222656 50.5499805,29.8222656 C48.7238086,29.8222656 47.1080046,30.2922363 45.7025684,31.2321777 C44.2971322,32.1721191 43.1960579,33.4746094 42.3993457,35.1396484 C41.6026335,36.8046875 41.2042773,38.7382812 41.2042773,40.9404297 L41.2042773,40.9672852 C41.2042773,43.2410482 41.5936816,45.2283529 42.3724902,46.9291992 C43.1512988,48.6300456 44.2434212,49.9549154 45.6488574,50.9038086 C47.0542936,51.8527018 48.6880013,52.3271484 50.5499805,52.3271484 C52.2687305,52.3271484 53.7860645,51.9287923 55.1019824,51.1320801 C56.4179004,50.3353678 57.3891732,49.1223958 58.0158008,47.4931641 L58.2575,47.4931641 L58.3380664,47.7348633 C58.7856576,49.0776367 59.5599902,50.2189941 60.6610645,51.1589355 C61.7621387,52.098877 63.1541471,52.5688477 64.8370898,52.5688477 C66.5021289,52.5688477 68.0060352,52.0585938 69.3488086,51.0380859 C70.691582,50.0175781 71.752373,48.5047201 72.5311816,46.4995117 C73.3099902,44.4943034 73.6993945,42.0056966 73.6993945,39.0336914 L73.6993945,39.0068359 C73.6993945,34.7994792 72.7684049,31.1605632 70.9064258,28.0900879 C69.0444466,25.0196126 66.4931771,22.6518555 63.2526172,20.9868164 C60.0120573,19.3217773 56.3149544,18.4892578 52.1613086,18.4892578 C48.9028451,18.4892578 45.9174121,19.0308431 43.2050098,20.1140137 C40.4926074,21.1971842 38.1472298,22.7324219 36.168877,24.7197266 C34.1905241,26.7070312 32.6642383,29.0703125 31.5900195,31.8095703 C30.5158008,34.5488281 29.9786914,37.5834961 29.9786914,40.9135742 L29.9786914,40.9404297 C29.9786914,44.5390625 30.5381803,47.7303874 31.6571582,50.5144043 C32.7761361,53.2984212 34.3516569,55.6393229 36.3837207,57.5371094 C38.4157845,59.4348958 40.8103971,60.8716634 43.5675586,61.8474121 C46.3247201,62.8231608 49.3414844,63.3110352 52.6178516,63.3110352 Z M51.1676562,48.5405273 C50.0039193,48.5405273 48.9968392,48.2361654 48.146416,47.6274414 C47.2959928,47.0187174 46.6425098,46.1548665 46.1859668,45.0358887 C45.7294238,43.9169108 45.5011523,42.5696615 45.5011523,40.9941406 L45.5011523,40.9672852 C45.5011523,39.409668 45.7294238,38.0758464 46.1859668,36.9658203 C46.6425098,35.8557943 47.2959928,35.0053711 48.146416,34.4145508 C48.9968392,33.8237305 50.0218229,33.5283203 51.2213672,33.5283203 C53.0296354,33.5283203 54.4798307,34.199707 55.5719531,35.5424805 C56.6640755,36.8852539 57.2101367,38.702474 57.2101367,40.9941406 L57.2101367,41.0209961 C57.2101367,43.3126628 56.6640755,45.1388346 55.5719531,46.4995117 C54.4798307,47.8601888 53.0117318,48.5405273 51.1676562,48.5405273 Z" id="@"></path>
                </g>
                <g id="Thin-M" transform="translate(311.042000, 427.000000)">
                    <path d="M25.8418,96.5273 C26.9648,96.5273 27.8438,95.8926 29.0156,94.8672 L46.5938,79.7793 L85.7051,79.7793 C97.229,79.7793 104.309,72.55273 104.309,61.1758 L104.309,19.4766 C104.309,8.0996 97.229,0.873 85.7051,0.873 L19.0547,0.873 C7.5312,0.873 0.4512,8.002 0.4512,19.4766 L0.4512,61.1758 C0.4512,72.65039 7.5312,79.7793 19.0547,79.7793 L23.2051,79.7793 L23.2051,93.5977 C23.2051,95.4043 24.2793,96.5273 25.8418,96.5273 Z M26.623,92.4746 L26.623,77.92383 C26.623,76.6543 26.1348,76.16602 24.8652,76.16602 L19.1523,76.16602 C9.7773,76.16602 4.0645,70.3555 4.0645,61.0781 L4.0645,19.5742 C4.0645,10.2969 9.7773,4.4863 19.1523,4.4863 L85.6074,4.4863 C94.787,4.4863 100.646,10.2969 100.646,19.5742 L100.646,61.0781 C100.646,70.3555 94.787,76.16602 85.6074,76.16602 L46.9844,76.16602 C45.4219,76.16602 44.6406,76.41016 43.3711,77.63086 L26.623,92.4746 Z" id="Shape"></path>
                    <path d="M51.6650312,62.2573242 C55.3710859,62.2573242 58.352043,61.863444 60.6079023,61.0756836 L60.6079023,58.4169922 C59.6948164,58.7750651 58.4370853,59.0615234 56.834709,59.2763672 C55.2323327,59.4912109 53.5270104,59.5986328 51.7187422,59.5986328 C47.9589766,59.5986328 44.6109948,58.8108724 41.6747969,57.2353516 C38.738599,55.6598307 36.4335046,53.3950195 34.7595137,50.440918 C33.0855228,47.4868164 32.2485273,43.9597982 32.2485273,39.8598633 L32.2485273,39.8330078 C32.2485273,36.9505208 32.718498,34.314209 33.6584395,31.9240723 C34.5983809,29.5339355 35.9187747,27.4571126 37.6196211,25.6936035 C39.3204674,23.9300944 41.3256758,22.5649414 43.6352461,21.5981445 C45.9448164,20.6313477 48.4602786,20.1479492 51.1816328,20.1479492 C54.8697839,20.1479492 58.1282474,20.8864746 60.9570234,22.3635254 C63.7857995,23.8405762 65.9924238,25.9129232 67.5768965,28.5805664 C69.1613691,31.2482096 69.9536055,34.3902995 69.9536055,38.0068359 L69.9536055,38.0336914 C69.9536055,41.5069987 69.4343997,44.1612142 68.3959883,45.9963379 C67.3575768,47.8314616 65.9968997,48.7490234 64.313957,48.7490234 C63.0786055,48.7490234 62.089429,48.2432454 61.3464277,47.2316895 C60.6034264,46.2201335 60.2319258,44.7654622 60.2319258,42.8676758 L60.2319258,29.359375 L57.1166914,29.359375 L57.1166914,33.1459961 L56.9287031,33.1459961 C56.427401,31.8211263 55.5501224,30.7692871 54.2968672,29.9904785 C53.043612,29.2116699 51.6471276,28.8222656 50.1074141,28.8222656 C48.2812422,28.8222656 46.6699141,29.2922363 45.2734297,30.2321777 C43.8769453,31.1721191 42.7848229,32.4790853 41.9970625,34.1530762 C41.2093021,35.8270671 40.8154219,37.7740885 40.8154219,39.9941406 L40.8154219,40.0209961 C40.8154219,42.2589518 41.2048262,44.2283529 41.9836348,45.9291992 C42.7624434,47.6300456 43.8500898,48.9504395 45.2465742,49.8903809 C46.6430586,50.8303223 48.2633385,51.300293 50.1074141,51.300293 C51.8261641,51.300293 53.3524499,50.8750814 54.6862715,50.0246582 C56.0200931,49.174235 57.0003177,47.8806966 57.6269453,46.144043 L57.8417891,46.144043 L57.9223555,46.4394531 C58.3341393,47.9254557 59.0905684,49.1384277 60.1916426,50.0783691 C61.2927168,51.0183105 62.6578698,51.4882812 64.2871016,51.4882812 C65.9700443,51.4882812 67.4605228,50.9735514 68.7585371,49.9440918 C70.0565514,48.9146322 71.0725833,47.3972982 71.8066328,45.3920898 C72.5406823,43.3868815 72.907707,40.9251302 72.907707,38.0068359 L72.907707,37.9799805 C72.907707,33.8442383 71.9856693,30.2411296 70.1415937,27.1706543 C68.2975182,24.100179 65.7552005,21.7234701 62.5146406,20.0405273 C59.2740807,18.3575846 55.5769779,17.5161133 51.423332,17.5161133 C48.1827721,17.5161133 45.2152428,18.0576986 42.5207441,19.1408691 C39.8262454,20.2240397 37.4898197,21.7592773 35.5114668,23.746582 C33.5331139,25.7338867 32.0023522,28.0837402 30.9191816,30.7961426 C29.8360111,33.5085449 29.2944258,36.5118815 29.2944258,39.8061523 L29.2944258,39.8330078 C29.2944258,43.3421224 29.8449629,46.4842122 30.9460371,49.2592773 C32.0471113,52.0343424 33.6002526,54.3886719 35.6054609,56.3222656 C37.6106693,58.2558594 39.9784264,59.7284342 42.7087324,60.7399902 C45.4390384,61.7515462 48.4244714,62.2573242 51.6650312,62.2573242 Z M50.5371016,48.3999023 C49.2480391,48.3999023 48.1201094,48.0552572 47.1533125,47.3659668 C46.1865156,46.6766764 45.4390384,45.7098796 44.9108809,44.4655762 C44.3827233,43.2212728 44.1186445,41.7397461 44.1186445,40.0209961 L44.1186445,39.9941406 C44.1186445,38.3111979 44.3827233,36.8475749 44.9108809,35.6032715 C45.4390384,34.3589681 46.1865156,33.3921712 47.1533125,32.7028809 C48.1201094,32.0135905 49.2569909,31.6689453 50.563957,31.6689453 C52.5333581,31.6689453 54.1088789,32.4119466 55.2905195,33.8979492 C56.4721602,35.3839518 57.0629805,37.3891602 57.0629805,39.9135742 L57.0629805,39.9404297 C57.0629805,42.5185547 56.4676842,44.572998 55.2770918,46.1037598 C54.0864993,47.6345215 52.5065026,48.3999023 50.5371016,48.3999023 Z" id="@"></path>
                </g>
                <g id="Ultralight-M" transform="translate(14.893000, 428.000000)">
                    <path d="M24.4746,94.6973 C25.2559,94.6973 25.8906,94.2578 26.5742,93.7207 L44.3477,78.58398 L85.7051,78.58398 C96.35,78.58398 103.186,71.60156 103.186,61.0547 L103.186,18.0859 C103.186,7.5879 96.35,0.6055 85.7051,0.6055 L17.9316,0.6055 C7.2871,0.6055 0.4512,7.4414 0.4512,18.0859 L0.4512,61.0547 C0.4512,71.74805 7.2871,78.58398 17.9316,78.58398 L22.668,78.58398 L22.668,92.6953 C22.668,93.916 23.4492,94.6973 24.4746,94.6973 Z M24.9141,92.1094 L24.9141,77.36328 C24.9141,76.5332 24.5723,76.19141 23.7422,76.19141 L18.0781,76.19141 C8.8496,76.19141 2.8438,70.18555 2.8438,60.957 L2.8438,18.2324 C2.8438,9.0039 8.8496,2.998 18.0781,2.998 L85.6074,2.998 C94.543,2.998 100.793,9.0039 100.793,18.2324 L100.793,60.957 C100.793,70.18555 94.543,76.19141 85.6074,76.19141 L44.8848,76.19141 C43.6641,76.19141 43.0781,76.43555 41.9551,77.41211 L24.9141,92.1094 Z" id="Shape"></path>
                    <path d="M50.8140313,61.2573242 C54.5200859,61.2573242 57.501043,60.863444 59.7569023,60.0756836 L59.7569023,57.4169922 C58.8438164,57.7750651 57.5860853,58.0615234 55.983709,58.2763672 C54.3813327,58.4912109 52.6760104,58.5986328 50.8677422,58.5986328 C47.1079766,58.5986328 43.7599948,57.8108724 40.8237969,56.2353516 C37.887599,54.6598307 35.5825046,52.3950195 33.9085137,49.440918 C32.2345228,46.4868164 31.3975273,42.9597982 31.3975273,38.8598633 L31.3975273,38.8330078 C31.3975273,35.9505208 31.867498,33.314209 32.8074395,30.9240723 C33.7473809,28.5339355 35.0677747,26.4571126 36.7686211,24.6936035 C38.4694674,22.9300944 40.4746758,21.5649414 42.7842461,20.5981445 C45.0938164,19.6313477 47.6092786,19.1479492 50.3306328,19.1479492 C54.0187839,19.1479492 57.2772474,19.8864746 60.1060234,21.3635254 C62.9347995,22.8405762 65.1414238,24.9129232 66.7258965,27.5805664 C68.3103691,30.2482096 69.1026055,33.3902995 69.1026055,37.0068359 L69.1026055,37.0336914 C69.1026055,40.5069987 68.5833997,43.1612142 67.5449883,44.9963379 C66.5065768,46.8314616 65.1458997,47.7490234 63.462957,47.7490234 C62.2276055,47.7490234 61.238429,47.2432454 60.4954277,46.2316895 C59.7524264,45.2201335 59.3809258,43.7654622 59.3809258,41.8676758 L59.3809258,28.359375 L56.2656914,28.359375 L56.2656914,32.1459961 L56.0777031,32.1459961 C55.576401,30.8211263 54.6991224,29.7692871 53.4458672,28.9904785 C52.192612,28.2116699 50.7961276,27.8222656 49.2564141,27.8222656 C47.4302422,27.8222656 45.8189141,28.2922363 44.4224297,29.2321777 C43.0259453,30.1721191 41.9338229,31.4790853 41.1460625,33.1530762 C40.3583021,34.8270671 39.9644219,36.7740885 39.9644219,38.9941406 L39.9644219,39.0209961 C39.9644219,41.2589518 40.3538262,43.2283529 41.1326348,44.9291992 C41.9114434,46.6300456 42.9990898,47.9504395 44.3955742,48.8903809 C45.7920586,49.8303223 47.4123385,50.300293 49.2564141,50.300293 C50.9751641,50.300293 52.5014499,49.8750814 53.8352715,49.0246582 C55.1690931,48.174235 56.1493177,46.8806966 56.7759453,45.144043 L56.9907891,45.144043 L57.0713555,45.4394531 C57.4831393,46.9254557 58.2395684,48.1384277 59.3406426,49.0783691 C60.4417168,50.0183105 61.8068698,50.4882812 63.4361016,50.4882812 C65.1190443,50.4882812 66.6095228,49.9735514 67.9075371,48.9440918 C69.2055514,47.9146322 70.2215833,46.3972982 70.9556328,44.3920898 C71.6896823,42.3868815 72.056707,39.9251302 72.056707,37.0068359 L72.056707,36.9799805 C72.056707,32.8442383 71.1346693,29.2411296 69.2905938,26.1706543 C67.4465182,23.100179 64.9042005,20.7234701 61.6636406,19.0405273 C58.4230807,17.3575846 54.7259779,16.5161133 50.572332,16.5161133 C47.3317721,16.5161133 44.3642428,17.0576986 41.6697441,18.1408691 C38.9752454,19.2240397 36.6388197,20.7592773 34.6604668,22.746582 C32.6821139,24.7338867 31.1513522,27.0837402 30.0681816,29.7961426 C28.9850111,32.5085449 28.4434258,35.5118815 28.4434258,38.8061523 L28.4434258,38.8330078 C28.4434258,42.3421224 28.9939629,45.4842122 30.0950371,48.2592773 C31.1961113,51.0343424 32.7492526,53.3886719 34.7544609,55.3222656 C36.7596693,57.2558594 39.1274264,58.7284342 41.8577324,59.7399902 C44.5880384,60.7515462 47.5734714,61.2573242 50.8140313,61.2573242 Z M49.6861016,47.3999023 C48.3970391,47.3999023 47.2691094,47.0552572 46.3023125,46.3659668 C45.3355156,45.6766764 44.5880384,44.7098796 44.0598809,43.4655762 C43.5317233,42.2212728 43.2676445,40.7397461 43.2676445,39.0209961 L43.2676445,38.9941406 C43.2676445,37.3111979 43.5317233,35.8475749 44.0598809,34.6032715 C44.5880384,33.3589681 45.3355156,32.3921712 46.3023125,31.7028809 C47.2691094,31.0135905 48.4059909,30.6689453 49.712957,30.6689453 C51.6823581,30.6689453 53.2578789,31.4119466 54.4395195,32.8979492 C55.6211602,34.3839518 56.2119805,36.3891602 56.2119805,38.9135742 L56.2119805,38.9404297 C56.2119805,41.5185547 55.6166842,43.572998 54.4260918,45.1037598 C53.2354993,46.6345215 51.6555026,47.3999023 49.6861016,47.3999023 Z" id="@"></path>
                </g>
                <g id="Black-S" transform="translate(2396.280000, 0.000000)">
                    <path d="M27.9141,88.3516 C31.332,88.3516 34.3105,87.08203 38.5098,83.46875 L51.1074,72.62891 L67.3672,72.62891 C79.3789,72.62891 87.4844,64.5234 87.4844,52.5117 L87.4844,20.8711 C87.4844,8.8594 79.3789,0.7539 67.3672,0.7539 L20.8828,0.7539 C8.8711,0.7539 0.76562,8.8594 0.76562,20.8711 L0.76562,52.5117 C0.76562,64.5234 9.8477,72.62891 19.418,72.62891 L19.7109,72.62891 L19.7109,79.46484 C19.7109,85.03125 22.8848,88.3516 27.9141,88.3516 Z M31.2344,72.82422 L31.2344,62.7656 C31.2344,59.6406 29.4766,58.4688 26.9375,58.4688 L22.1523,58.4688 C17.4648,58.4688 14.9258,56.125 14.9258,51.2422 L14.9258,22.1406 C14.9258,17.2578 17.4648,14.9141 22.1523,14.9141 L66.0977,14.9141 C70.7852,14.9141 73.3242,17.2578 73.3242,22.1406 L73.3242,51.2422 C73.3242,56.125 70.7852,58.4688 66.0977,58.4688 L49.8379,58.4688 C46.6152,58.4688 45.3457,59.2012 42.9043,61.5449 L31.2344,72.82422 Z" id="Shape"></path>
                </g>
                <g id="Heavy-S" transform="translate(2099.760000, 1.000000)">
                    <path d="M27.2793,86.66797 C30.4043,86.66797 33.041,85.39844 36.8496,82.07812 L49.5938,71.04297 L67.416,71.04297 C79.4277,71.04297 87.0938,63.3281 87.0938,51.3652 L87.0938,20.457 C87.0938,8.4941 79.4277,0.7793 67.416,0.7793 L20.4434,0.7793 C8.4316,0.7793 0.76562,8.4941 0.76562,20.457 L0.76562,51.3652 C0.76562,63.3281 9.2129,71.04297 19.3203,71.04297 L19.9062,71.04297 L19.9062,78.5625 C19.9062,83.5918 22.7383,86.66797 27.2793,86.66797 Z M30.2578,72.89844 L30.2578,62.6445 C30.2578,59.666 28.6953,58.543 26.2051,58.543 L21.4199,58.543 C16,58.543 13.2656,55.9062 13.2656,50.3887 L13.2656,21.4336 C13.2656,15.9648 16,13.2793 21.4199,13.2793 L66.4395,13.2793 C71.8594,13.2793 74.6426,15.9648 74.6426,21.4336 L74.6426,50.3887 C74.6426,55.9062 71.8594,58.543 66.4395,58.543 L48.5195,58.543 C45.4922,58.543 44.2227,59.1777 41.9766,61.375 L30.2578,72.89844 Z" id="Shape"></path>
                </g>
                <g id="Bold-S" transform="translate(1803.270000, 2.000000)">
                    <path d="M26.5957,84.88672 C29.3789,84.88672 31.5762,83.66602 35.043,80.6875 L47.8848,69.35938 L67.4648,69.35938 C79.4766,69.35938 86.6543,62.084 86.6543,50.1699 L86.6543,20.1406 C86.6543,8.2266 79.4766,0.9512 67.4648,0.9512 L19.9551,0.9512 C7.9434,0.9512 0.76562,8.2266 0.76562,20.1406 L0.76562,50.1699 C0.76562,62.084 8.4316,69.35938 19.2227,69.35938 L20.1016,69.35938 L20.1016,77.66016 C20.1016,82.10352 22.543,84.88672 26.5957,84.88672 Z M29.1836,73.07031 L29.1836,62.5723 C29.1836,59.8379 27.8164,58.7637 25.375,58.7637 L20.5898,58.7637 C14.3398,58.7637 11.3613,55.7363 11.3613,49.5352 L11.3613,20.7754 C11.3613,14.5742 14.3398,11.5469 20.5898,11.5469 L66.8301,11.5469 C73.0801,11.5469 76.0586,14.5742 76.0586,20.7754 L76.0586,49.5352 C76.0586,55.7363 73.0801,58.7637 66.8301,58.7637 L47.0547,58.7637 C44.2227,58.7637 43.002,59.3008 41,61.3027 L29.1836,73.07031 Z" id="Shape"></path>
                </g>
                <g id="Semibold-S" transform="translate(1506.700000, 3.000000)">
                    <path d="M26.1074,83.30078 C28.6465,83.30078 30.5996,82.12891 33.7734,79.39453 L46.7129,67.91992 L67.5137,67.91992 C79.5254,67.91992 86.3613,60.9375 86.3613,49.0723 L86.3613,19.6289 C86.3613,7.7148 79.5254,0.7324 67.5137,0.7324 L19.6621,0.7324 C7.6504,0.7324 0.76562,7.7148 0.76562,19.6289 L0.76562,49.0723 C0.76562,60.9375 7.9434,67.91992 19.1738,67.91992 L20.248,67.91992 L20.248,76.75781 C20.248,80.81055 22.4453,83.30078 26.1074,83.30078 Z M28.4023,72.90039 L28.4023,62.2559 C28.4023,59.6191 27.2305,58.6426 24.7891,58.6426 L20.0527,58.6426 C13.168,58.6426 10.0918,55.3223 10.0918,48.6328 L10.0918,20.0195 C10.0918,13.3301 13.168,10.0586 20.0527,10.0586 L67.0742,10.0586 C73.959,10.0586 77.084,13.3301 77.084,20.0195 L77.084,48.6328 C77.084,55.3223 73.959,58.6426 67.0742,58.6426 L46.0293,58.6426 C43.3926,58.6426 42.123,59.082 40.2676,60.9863 L28.4023,72.90039 Z" id="Shape"></path>
                </g>
                <g id="Medium-S" transform="translate(1210.090000, 4.000000)">
                    <path d="M25.7168,81.91016 C28.1094,81.91016 29.8672,80.73828 32.7969,78.15039 L45.7852,66.57812 L67.5137,66.57812 C79.5254,66.57812 86.166,59.791 86.166,47.9746 L86.166,18.9707 C86.166,7.1055 79.5254,0.3184 67.5137,0.3184 L19.418,0.3184 C7.4062,0.3184 0.76562,7.1055 0.76562,18.9707 L0.76562,47.9746 C0.76562,59.791 7.5527,66.57812 19.125,66.57812 L20.3457,66.57812 L20.3457,75.80664 C20.3457,79.56641 22.3477,81.91016 25.7168,81.91016 Z M27.8164,72.53516 L27.8164,61.7441 C27.8164,59.2051 26.791,58.2773 24.3496,58.2773 L19.6133,58.2773 C12.3379,58.2773 9.0664,54.7617 9.0664,47.7305 L9.0664,19.2148 C9.0664,12.1836 12.3379,8.668 19.6133,8.668 L67.3184,8.668 C74.5938,8.668 77.8164,12.1836 77.8164,19.2148 L77.8164,47.7305 C77.8164,54.7617 74.5938,58.2773 67.3184,58.2773 L45.248,58.2773 C42.709,58.2773 41.4883,58.668 39.7793,60.4746 L27.8164,72.53516 Z" id="Shape"></path>
                </g>
                <g id="Regular-S" transform="translate(913.530000, 5.000000)">
                    <path d="M25.2773,80.37305 C27.4258,80.37305 28.8906,79.25 31.5273,76.85742 L44.6133,65.13867 L67.5625,65.13867 C79.5742,65.13867 85.873,58.6445 85.873,46.8281 L85.873,18.4102 C85.873,6.5938 79.5742,0.0996 67.5625,0.0996 L19.0762,0.0996 C7.0645,0.0996 0.76562,6.5938 0.76562,18.4102 L0.76562,46.8281 C0.76562,58.6445 7.0645,65.13867 19.0762,65.13867 L20.4922,65.13867 L20.4922,74.85547 C20.4922,78.22461 22.2012,80.37305 25.2773,80.37305 Z M27.084,72.365234 L27.084,61.3789 C27.084,58.9863 26.2051,58.1074 23.8125,58.1074 L19.0762,58.1074 C11.2148,58.1074 7.7969,54.3477 7.7969,46.8281 L7.7969,18.4102 C7.7969,10.9395 11.2148,7.1797 19.0762,7.1797 L67.5625,7.1797 C75.4238,7.1797 78.8418,10.9395 78.8418,18.4102 L78.8418,46.8281 C78.8418,54.3477 75.4238,58.1074 67.5625,58.1074 L44.2227,58.1074 C41.8789,58.1074 40.6582,58.4492 39.0957,60.1094 L27.084,72.365234 Z" id="Shape"></path>
                </g>
                <g id="Light-S" transform="translate(617.550000, 6.000000)">
                    <path d="M23.4707,78.29883 C25.1797,78.29883 26.3516,77.41992 28.3047,75.61328 L41.6836,63.8457 L67.5625,63.8457 C78.4023,63.8457 84.4082,57.6934 84.4082,47 L84.4082,16.9219 C84.4082,6.2285 78.4023,0.0762 67.5625,0.0762 L17.6113,0.0762 C6.7715,0.0762 0.76562,6.1797 0.76562,16.9219 L0.76562,47 C0.76562,57.7422 6.7715,63.8457 17.6113,63.8457 L19.7598,63.8457 L19.7598,74.00195 C19.7598,76.63867 21.127,78.29883 23.4707,78.29883 Z M24.8379,72.146484 L24.8379,60.9648 C24.8379,59.1582 24.1543,58.4258 22.2988,58.4258 L17.6602,58.4258 C9.9941,58.4258 6.1855,54.373 6.1855,46.9512 L6.1855,16.9707 C6.1855,9.5488 9.9941,5.4961 17.6602,5.4961 L67.5137,5.4961 C75.1309,5.4961 78.9883,9.5488 78.9883,16.9707 L78.9883,46.9512 C78.9883,54.373 75.1309,58.4258 67.5137,58.4258 L41.5371,58.4258 C39.6328,58.4258 38.6074,58.7188 37.2891,60.0859 L24.8379,72.146484 Z" id="Shape"></path>
                </g>
                <g id="Thin-S" transform="translate(321.763000, 7.000000)">
                    <path d="M21.127,75.88281 C22.2012,75.88281 22.9824,75.29688 24.0566,74.32031 L37.7773,62.50391 L67.5625,62.50391 C76.9375,62.50391 82.5527,56.7422 82.5527,47.5137 L82.5527,15.2871 C82.5527,6.0586 76.9375,0.3457 67.5625,0.3457 L15.7559,0.3457 C6.3809,0.3457 0.76562,6.0098 0.76562,15.2871 L0.76562,47.5137 C0.76562,56.8398 6.3809,62.50391 15.7559,62.50391 L18.832,62.50391 L18.832,73.19727 C18.832,74.80859 19.7109,75.88281 21.127,75.88281 Z M21.9082,72.17188 L21.9082,60.7949 C21.9082,59.623 21.4688,59.1836 20.3457,59.1836 L15.8047,59.1836 C8.4316,59.1836 4.0859,54.7402 4.0859,47.4648 L4.0859,15.3848 C4.0859,8.0605 8.4316,3.6172 15.8047,3.6172 L67.5137,3.6172 C74.7402,3.6172 79.2324,8.0605 79.2324,15.3848 L79.2324,47.4648 C79.2324,54.7402 74.7402,59.1836 67.5137,59.1836 L37.9727,59.1836 C36.6543,59.1836 35.9707,59.4277 34.8965,60.4531 L21.9082,72.17188 Z" id="Shape"></path>
                </g>
                <g id="Ultralight-S" transform="translate(25.540000, 7.000000)">
                    <path d="M19.9551,75.10156 C20.6387,75.10156 21.2246,74.71094 21.8594,74.17383 L35.7266,62.30859 L67.5625,62.30859 C76.1562,62.30859 81.5762,56.791 81.5762,48.2949 L81.5762,14.9941 C81.5762,6.498 76.1562,0.9805 67.5625,0.9805 L14.7793,0.9805 C6.1855,0.9805 0.76562,6.4004 0.76562,14.9941 L0.76562,48.2949 C0.76562,56.8887 6.1855,62.30859 14.7793,62.30859 L18.2949,62.30859 L18.2949,73.29492 C18.2949,74.41797 18.9785,75.10156 19.9551,75.10156 Z M20.3945,72.70898 L20.3945,61.18555 C20.3945,60.4043 20.0527,60.1113 19.3203,60.1113 L14.8281,60.1113 C7.6016,60.1113 2.9629,55.4727 2.9629,48.1973 L2.9629,15.043 C2.9629,7.8164 7.6016,3.1777 14.8281,3.1777 L67.4648,3.1777 C74.5449,3.1777 79.3301,7.8164 79.3301,15.043 L79.3301,48.1973 C79.3301,55.4727 74.5449,60.1113 67.4648,60.1113 L36.166,60.1113 C35.0918,60.1113 34.5547,60.3066 33.6758,61.13672 L20.3945,72.70898 Z" id="Shape"></path>
                </g>
            </g>
        </g>
    </g>
</svg>